<?xml version="1.0" encoding="UTF-8"?>
<svg version="1.1" xmlns="http://www.w3.org/2000/svg" width="1254" height="1254">
<path d="M0 0 C413.82 0 827.64 0 1254 0 C1254 413.82 1254 827.64 1254 1254 C840.18 1254 426.36 1254 0 1254 C0 840.18 0 426.36 0 0 Z " fill="#F8F3ED" transform="translate(0,0)"/>
<path d="M0 0 C0.33 0 0.66 0 1 0 C1 193.71 1 387.42 1 587 C-193.04 587 -387.08 587 -587 587 C-587 586.67 -587 586.34 -587 586 C-586.17951172 585.94054199 -585.35902344 585.88108398 -584.51367188 585.81982422 C-566.69831594 584.48735338 -549.04168017 582.61556769 -531.375 579.9375 C-530.51269775 579.80784851 -529.65039551 579.67819702 -528.76196289 579.5446167 C-526.28564274 579.16990569 -523.81056494 578.78806323 -521.3359375 578.40234375 C-520.61010468 578.29092545 -519.88427185 578.17950714 -519.13644409 578.06471252 C-515.66409285 577.51055906 -512.27127684 576.84758412 -508.86547852 575.96923828 C-505.49618019 575.12441327 -502.25445903 574.54348537 -498.81640625 574.08984375 C-492.0272957 573.08640636 -485.53632201 571.42249112 -478.9375 569.5625 C-476.759413 568.95855817 -474.58102856 568.35568797 -472.40234375 567.75390625 C-470.80797485 567.31147583 -470.80797485 567.31147583 -469.18139648 566.86010742 C-466.05755395 566.01556002 -462.92445556 565.22993197 -459.78125 564.4609375 C-454.63665296 563.18967105 -449.60066173 561.70105761 -444.5625 560.0625 C-442.90513428 559.52936821 -441.24758182 558.99681661 -439.58984375 558.46484375 C-438.7994873 558.2107373 -438.00913086 557.95663086 -437.19482422 557.69482422 C-434.35082569 556.79448831 -431.48799621 555.96267769 -428.625 555.125 C-420.22292545 552.54709076 -412.06484351 549.3028365 -403.87939453 546.11621094 C-400.93324854 544.97412348 -397.98094028 543.84922689 -395.02734375 542.7265625 C-385.62298191 539.13104795 -376.42711307 535.46463888 -367.49609375 530.80078125 C-364.109279 529.05628784 -360.68890462 527.42652592 -357.23657227 525.81762695 C-333.23549814 514.62808398 -310.05425141 501.66701738 -288 487 C-286.79569824 486.20553916 -285.59126644 485.41127542 -284.38671875 484.6171875 C-281.22518173 482.52723905 -278.0769189 480.41823943 -274.93408203 478.30029297 C-273.63780957 477.42880255 -272.33927499 476.56066803 -271.03857422 475.69580078 C-261.12381457 469.10144646 -251.83828322 461.98007128 -242.67724609 454.37744141 C-240.61271184 452.68193889 -238.50215423 451.05350811 -236.375 449.4375 C-226.75670519 442.01767258 -217.72671922 433.84355174 -208.81640625 425.59765625 C-206.13058003 423.1204379 -203.4149255 420.68123449 -200.6875 418.25 C-197.23568179 415.15602579 -193.93417441 411.96673257 -190.69140625 408.65625 C-188.96525654 406.96597869 -187.16404888 405.42619496 -185.3125 403.875 C-179.97673572 399.26777276 -175.35228873 393.99030511 -170.625 388.77783203 C-168.98354952 386.98200235 -167.32371503 385.20527535 -165.65625 383.43359375 C-159.93933487 377.35536492 -154.38948492 371.23534336 -149.1953125 364.6953125 C-147.38575077 362.4736086 -145.5324217 360.32719185 -143.6328125 358.18359375 C-140.1570971 354.23041944 -136.92591338 350.13338556 -133.75 345.9375 C-133.00556641 344.96393555 -133.00556641 344.96393555 -132.24609375 343.97070312 C-123.29883096 332.21493228 -114.67826017 320.25600941 -106.41772461 308.00830078 C-105.04236565 305.970163 -103.66110513 303.93611315 -102.27929688 301.90234375 C-101.3850692 300.58096424 -100.49117625 299.25935814 -99.59765625 297.9375 C-99.19345963 297.34259766 -98.789263 296.74769531 -98.37281799 296.13476562 C-95.71781162 292.18845675 -93.31945005 288.15285712 -91 284 C-90.34 284 -89.68 284 -89 284 C-88.92136719 283.32324219 -88.84273437 282.64648438 -88.76171875 281.94921875 C-87.77805546 278.14067627 -85.87797792 275.11157372 -83.8125 271.8125 C-83.40322266 271.14250977 -82.99394531 270.47251953 -82.57226562 269.78222656 C-80.86748632 266.99417412 -79.14121112 264.22190319 -77.38671875 261.46484375 C-73.54345292 255.32644453 -70.51812033 248.88531025 -67.47021484 242.328125 C-64.44700178 235.85072207 -61.16970061 229.55970235 -57.7265625 223.296875 C-54.76743966 217.64642324 -52.47420617 211.73630907 -50.125 205.8125 C-48.36171798 201.37310801 -46.56535938 196.95500153 -44.6875 192.5625 C-22.95864383 140.53860398 -9.09499669 85.41034784 -2.625 29.4375 C-2.54555145 28.75119507 -2.46610291 28.06489014 -2.38424683 27.35778809 C-1.34593056 18.25121893 -0.58661431 9.1456892 0 0 Z " fill="#000000" transform="translate(1253,667)"/>
<path d="M0 0 C0.33 0 0.66 0 1 0 C1.04487549 0.63164063 1.08975098 1.26328125 1.13598633 1.9140625 C3.12269448 29.38654978 7.11612414 55.96504203 12.58261108 82.9291687 C12.99095705 84.95513434 13.39287419 86.98225575 13.79223633 89.01000977 C17.95100839 110.07157343 23.3954239 130.57557459 30 151 C30.31646484 151.9811377 30.63292969 152.96227539 30.95898438 153.97314453 C34.01991189 163.41742142 37.1725872 172.80526897 40.828125 182.0390625 C41.63080583 184.0671694 42.41101934 186.10427196 43.171875 188.1484375 C45.59588223 194.64918417 48.3010699 200.95964215 51.28393555 207.22021484 C53.06929044 210.97379374 54.76031721 214.7491356 56.37426758 218.5793457 C61.23710897 230.06417706 67.12219515 241.00972948 73 252 C73.77730469 253.46155518 73.77730469 253.46155518 74.5703125 254.95263672 C80.06098045 265.25971031 85.66964775 275.36483075 92.1171875 285.10546875 C93.7206308 287.57051332 95.17367734 290.03590345 96.5625 292.625 C101.72212867 302.15451826 108.28333937 310.89353858 114.60546875 319.67578125 C114.9926709 320.2167041 115.37987305 320.75762695 115.77880859 321.31494141 C116.64403477 322.50882207 117.52346638 323.69246659 118.41259766 324.86865234 C122 329.68003649 122 329.68003649 122 333 C122.99 333.33 123.98 333.66 125 334 C127.38122757 336.66137199 128.8655859 338.5967577 130 342 C131.65383026 343.67940496 133.32255394 345.3441829 135 347 C136.57141484 348.99778849 138.11171607 351.02032586 139.625 353.0625 C144.67999868 359.7759149 150.26482245 365.86898964 156 372 C157.32099231 373.45064526 158.63471817 374.90797858 159.9375 376.375 C160.44152344 376.93960937 160.94554687 377.50421875 161.46484375 378.0859375 C163 380 163 380 164.80200195 382.8112793 C166.90577973 385.86331101 169.08045849 388.32426549 171.703125 390.93359375 C172.60160156 391.83013672 173.50007812 392.72667969 174.42578125 393.65039062 C175.35777344 394.57013672 176.28976563 395.48988281 177.25 396.4375 C178.62478516 397.81131836 178.62478516 397.81131836 180.02734375 399.21289062 C184.6680564 403.82381268 189.36039561 408.31539208 194.33496094 412.56542969 C196.70175468 414.60462031 198.89093571 416.69321093 201 419 C201 419.66 201 420.32 201 421 C201.66 421 202.32 421 203 421 C203.33 421.66 203.66 422.32 204 423 C205.06347656 423.61488281 205.06347656 423.61488281 206.1484375 424.2421875 C209.75588781 426.46595824 212.57854992 429.19981842 215.625 432.125 C220.74626687 436.96635004 225.98209747 441.54817797 231.48828125 445.953125 C233.90069085 447.91907 236.20251315 449.96426423 238.5 452.0625 C242.45654568 455.6136046 246.6163762 458.73849358 250.9453125 461.8203125 C253.10246549 463.35955978 255.24089547 464.91165583 257.3671875 466.4921875 C264.56782378 471.84109126 271.85977691 477.04071183 279.25 482.125 C280.07242187 482.69371826 280.89484375 483.26243652 281.7421875 483.84838867 C282.89847656 484.63886597 282.89847656 484.63886597 284.078125 485.4453125 C284.76293945 485.91469238 285.44775391 486.38407227 286.15332031 486.86767578 C288.10680249 488.16133245 288.10680249 488.16133245 291 489 C291 489.66 291 490.32 291 491 C291.5775 491.12375 292.155 491.2475 292.75 491.375 C295.02335767 492.00648824 296.9253529 492.88858191 299 494 C299 494.66 299 495.32 299 496 C300.00740234 496.36738281 300.00740234 496.36738281 301.03515625 496.7421875 C304.65718895 498.27880743 308.02789717 500.17494934 311.4375 502.125 C312.14124756 502.52388428 312.84499512 502.92276855 313.57006836 503.33374023 C316.93091356 505.24100194 320.28400115 507.16154369 323.6328125 509.08984375 C337.68659437 517.17316931 351.80186578 524.38177217 366.62988281 530.94042969 C370.06680523 532.47691952 373.47118133 534.0793542 376.875 535.6875 C389.04015355 541.38294406 401.37932531 546.42404842 414 551 C414.71124023 551.25813477 415.42248047 551.51626953 416.15527344 551.78222656 C428.26628552 556.1591127 440.39577001 560.2698251 452.953125 563.19140625 C455.3665545 563.83189331 457.66053286 564.5559942 460.015625 565.37109375 C475.31620241 570.54835249 491.51252462 574.11371832 507.46289062 576.59472656 C510.6100375 577.09744633 513.74981759 577.63878004 516.890625 578.1796875 C540.5490398 582.23580595 564.05055135 585.31248034 588 587 C588 587.33 588 587.66 588 588 C393.96 588 199.92 588 0 588 C0 393.96 0 199.92 0 0 Z " fill="#000000" transform="translate(0,666)"/>
<path d="M0 0 C194.04 0 388.08 0 588 0 C588 0.33 588 0.66 588 1 C586.49771851 1.11275269 586.49771851 1.11275269 584.96508789 1.2277832 C581.16036454 1.51564274 577.35659157 1.81479593 573.55297852 2.11694336 C571.92332566 2.24490649 570.29344597 2.37002058 568.66333008 2.49194336 C558.66112077 3.24234066 548.90176436 4.4159083 539.04467773 6.27124023 C535.21174377 6.98456343 531.36944371 7.50302222 527.5 7.984375 C519.25447819 9.04227458 511.14335284 10.59968263 503 12.25 C502.23886902 12.4030661 501.47773804 12.5561322 500.69354248 12.71383667 C488.53571726 15.16696524 476.5058559 17.93105325 464.56054688 21.28369141 C462.02917902 21.99183722 459.49216312 22.67540443 456.953125 23.35546875 C438.31837355 28.42657682 419.87101097 34.68416485 402 42 C400.38841244 42.6416095 398.77642481 43.28221493 397.1640625 43.921875 C381.9279565 50.02107311 366.78471766 56.29416994 352.21777344 63.86767578 C349.58008512 65.21439511 346.92045965 66.51192878 344.2578125 67.80859375 C333.73787703 72.95051354 323.5184378 78.21001685 313.73046875 84.6484375 C310.80084497 86.55506346 307.78242776 88.21718418 304.69921875 89.86328125 C299.11670453 92.87244497 293.87041054 96.25471333 288.625 99.8125 C287.70871826 100.42923584 286.79243652 101.04597168 285.84838867 101.68139648 C283.22817258 103.44832537 280.61303898 105.22247984 278 107 C277.36239746 107.43248047 276.72479492 107.86496094 276.06787109 108.31054688 C272.3518362 110.83611227 268.66868749 113.40638577 265 116 C264.31341309 116.48291504 263.62682617 116.96583008 262.91943359 117.46337891 C251.95352173 125.19492943 241.47514994 133.22268842 231.53125 142.23828125 C230.8196875 142.88152344 230.108125 143.52476562 229.375 144.1875 C228.78460938 144.73792969 228.19421875 145.28835937 227.5859375 145.85546875 C226 147 226 147 223 147 C222.7628125 147.57234375 222.525625 148.1446875 222.28125 148.734375 C220.71885289 151.49715039 218.88231992 153.15416159 216.5 155.25 C215.7059375 155.95640625 214.911875 156.6628125 214.09375 157.390625 C212.44185521 158.81829982 210.7703848 160.17291413 209.02563477 161.48681641 C200.7317841 167.80853657 193.53218767 175.20042554 186.20141602 182.59277344 C183.91680402 184.89586337 181.62406793 187.19062921 179.33007812 189.484375 C177.87452357 190.94483782 176.41942819 192.40575846 174.96484375 193.8671875 C174.27954086 194.55360321 173.59423798 195.24001892 172.88816833 195.94723511 C172.25983597 196.58194733 171.6315036 197.21665955 170.98413086 197.87060547 C170.43027206 198.42827606 169.87641327 198.98594666 169.30577087 199.56051636 C167.89446822 200.98631302 167.89446822 200.98631302 167 203 C166.34 203 165.68 203 165 203 C164.83455688 203.90105469 164.83455688 203.90105469 164.66577148 204.8203125 C163.57898193 208.37838258 160.70845306 210.5169221 158.0625 213 C153.28570939 217.43651463 153.28570939 217.43651463 150 223 C148.35697047 224.68997323 146.68528688 226.35216394 145 228 C140.05338933 233.28442798 135.81488663 238.92385744 131.69921875 244.875 C131.13847656 245.57625 130.57773438 246.2775 130 247 C129.34 247 128.68 247 128 247 C127.67 248.32 127.34 249.64 127 251 C126.34 251 125.68 251 125 251 C124.67 252.32 124.34 253.64 124 255 C123.34 255 122.68 255 122 255 C122 255.99 122 256.98 122 258 C121.34 258 120.68 258 120 258 C119.67 259.32 119.34 260.64 119 262 C118.34 262 117.68 262 117 262 C117 262.99 117 263.98 117 265 C116.34 265 115.68 265 115 265 C114.80019531 265.80308594 114.60039063 266.60617187 114.39453125 267.43359375 C112.52661403 272.21064816 109.69896176 275.93810671 106.6875 280.0625 C95.29082815 296.01843078 85.28189988 312.73938963 76 330 C75.60248535 330.73331543 75.2049707 331.46663086 74.79541016 332.22216797 C57.23176195 364.68487871 42.02517844 398.73658881 31 434 C30.51853516 435.52753906 30.51853516 435.52753906 30.02734375 437.0859375 C29.00089565 440.3855318 28.00114597 443.69264278 27 447 C26.53172781 448.506659 26.06294287 450.0131587 25.59375 451.51953125 C11.90924723 495.77419626 4.60577404 541.91421975 1 588 C0.67 588 0.34 588 0 588 C0 393.96 0 199.92 0 0 Z " fill="#000000" transform="translate(0,0)"/>
<path d="M0 0 C194.04 0 388.08 0 588 0 C588 194.04 588 388.08 588 588 C587.67 588 587.34 588 587 588 C586.94054199 587.12827148 586.88108398 586.25654297 586.81982422 585.35839844 C585.28912005 563.7142978 582.62925317 542.50717653 578.74804688 521.15991211 C578.23403446 518.32795287 577.74254975 515.49330554 577.26757812 512.65454102 C575.75932892 503.7016625 573.873048 494.95948747 571.5 486.1875 C570.90575731 483.95195382 570.31200377 481.71627756 569.71875 479.48046875 C569.28369141 477.85117432 569.28369141 477.85117432 568.83984375 476.18896484 C568.04463691 473.16949049 567.28126585 470.14425746 566.53125 467.11328125 C563.33214401 454.29792144 559.75829597 441.78753969 555.4375 429.3125 C555.17877106 428.56108734 554.92004211 427.80967468 554.6534729 427.03549194 C542.13991168 390.75128017 526.58599161 356.54544828 508 323 C507.64905273 322.36642578 507.29810547 321.73285156 506.93652344 321.08007812 C505.75283694 318.94725594 504.56460808 316.81702441 503.375 314.6875 C503.00246094 314.01710693 502.62992188 313.34671387 502.24609375 312.65600586 C500.51827749 309.57583519 498.7540659 306.60028038 496.7265625 303.70703125 C495 301 495 301 495 298 C494.34 298 493.68 298 493 298 C492.43539063 296.99195313 491.87078125 295.98390625 491.2890625 294.9453125 C488.76854779 290.53274621 485.98902327 286.30658408 483.1796875 282.07421875 C481.04857833 278.81275776 479.29157318 275.68028916 478 272 C477.34 272 476.68 272 476 272 C476 271.01 476 270.02 476 269 C475.01 268.67 474.02 268.34 473 268 C469 262.74285714 469 262.74285714 469 259 C468.01 258.67 467.02 258.34 466 258 C465.5359375 256.5459375 465.5359375 256.5459375 465.0625 255.0625 C464.34552327 251.90354844 464.34552327 251.90354844 462 250.875 C461.34 250.58625 460.68 250.2975 460 250 C458.875 247.9375 458.875 247.9375 458 246 C457.34 245.67 456.68 245.34 456 245 C455.46375 244.01 454.9275 243.02 454.375 242 C452.14433042 237.94348606 449.24281076 234.76973673 446.125 231.37109375 C444.05885183 229.06566739 442.1504661 226.69289079 440.25 224.25 C436.46078219 219.43626206 432.35648114 214.97651028 428.12402344 210.55371094 C425.98018396 208.28599892 424.07748895 206.12961067 422.47265625 203.4453125 C420.61866181 200.36679653 418.33343403 198.18073032 415.75 195.6875 C412.62799394 192.63852332 409.55973236 189.59387419 406.75 186.25 C399.23720017 177.46384427 390.7718381 169.11738919 381.94140625 161.66015625 C379.46555003 159.54297538 377.08338732 157.33218171 374.6875 155.125 C370.11636985 150.95218409 365.40545359 147.01016921 360.5859375 143.12890625 C358.3114858 141.25643468 356.15535728 139.31877131 354 137.3125 C347.24086601 131.23170204 339.72209591 126.06082904 332.37304688 120.7265625 C330.2054967 119.14951365 328.04594328 117.56245634 325.890625 115.96875 C311.35733476 105.22295705 296.44229786 95.39010497 281 86 C280.18789063 85.50338867 279.37578125 85.00677734 278.5390625 84.49511719 C272.25211971 80.67947266 265.84728513 77.11562366 259.375 73.625 C258.32683105 73.05845703 257.27866211 72.49191406 256.19873047 71.90820312 C248.96379538 68.01494461 241.68340105 64.23783822 234.3046875 60.625 C232.36076845 59.66912491 230.42448123 58.69690548 228.5078125 57.6875 C221.20411438 53.8461086 213.52058165 50.94074497 205.8515625 47.921875 C202.04205906 46.42156189 198.26500356 44.8593155 194.5 43.25 C189.79990624 41.27066474 185.04375298 39.6195571 180.1796875 38.08984375 C177.49537389 37.16979031 174.8990811 36.16107344 172.2734375 35.08984375 C167.16718462 33.02801443 162.00158489 31.27677398 156.75 29.625 C155.31901978 29.17447266 155.31901978 29.17447266 153.85913086 28.71484375 C133.48702348 22.36978985 112.83422536 17.54638113 92 13 C90.79085937 12.73421143 89.58171875 12.46842285 88.3359375 12.19458008 C70.15731895 8.23780969 51.86493857 5.75317764 33.375 3.8125 C32.57320312 3.72791534 31.77140625 3.64333069 30.9453125 3.55618286 C20.64044317 2.47805174 10.3437231 1.60851067 0 1 C0 0.67 0 0.34 0 0 Z " fill="#000000" transform="translate(666,0)"/>
<path d="M0 0 C22.29667418 -0.3746393 44.59282572 -0.65633154 66.8920145 -0.82899475 C77.24736126 -0.9113168 87.60074672 -1.02343198 97.95483398 -1.20703125 C106.98522702 -1.36708164 116.01419931 -1.46986289 125.04597133 -1.50541592 C129.82415636 -1.52618499 134.59827919 -1.57456663 139.3751545 -1.69168091 C172.34862495 -2.46886306 172.34862495 -2.46886306 180.68132687 5.44313049 C182.96091949 8.11535425 184.87439245 10.85563079 186.66061211 13.87722778 C189.01159751 17.60326303 192.02770403 20.76380701 195 24 C195.48322188 24.5320253 195.96644377 25.0640506 196.46430874 25.61219788 C197.80323687 27.08057016 199.15148315 28.54042882 200.5 30 C204.12187167 33.93194867 207.68960906 37.90216297 211.19140625 41.94140625 C213.4301125 44.4895665 215.71410212 46.99410593 218 49.5 C220.84524228 52.61907011 223.6719958 55.74755391 226.4375 58.9375 C229.39883456 62.34688518 232.44150305 65.67796376 235.5 69 C239.12087545 72.9328728 242.68958864 76.90213942 246.19140625 80.94140625 C248.4301125 83.4895665 250.71410212 85.99410593 253 88.5 C255.84524228 91.61907011 258.6719958 94.74755391 261.4375 97.9375 C264.3988351 101.3468858 267.44152486 104.6779431 270.5 108 C274.14414329 111.95862186 277.73913717 115.9517676 281.265625 120.015625 C284.79499465 124.05373262 288.40570631 128.01974189 292 132 C300.56860207 141.48872041 300.56860207 141.48872041 304.4375 145.9375 C308.09178862 150.13442081 311.84744973 154.2365276 315.59765625 158.34765625 C317.56941844 160.52460996 319.51365337 162.71838674 321.4375 164.9375 C324.86768576 168.88667367 328.41003518 172.73022305 331.95288086 176.57788086 C334.50540453 179.3547637 337.02975746 182.14972015 339.5 185 C342.40085562 188.34500576 345.37824395 191.6160534 348.375 194.875 C355.10079917 202.18924913 361.79935714 209.52906674 368.2890625 217.0546875 C369.50635955 218.43873757 370.75483205 219.79563379 372.0234375 221.1328125 C372.67570312 221.83148437 373.32796875 222.53015625 374 223.25 C374.598125 223.87390625 375.19625 224.4978125 375.8125 225.140625 C377 227 377 227 376.87890625 229 C370.20722577 244.18177958 350.03484379 256.59959613 337 266 C336.16154541 266.60763184 336.16154541 266.60763184 335.30615234 267.22753906 C321.29396154 277.22322026 301.95715277 288.5691996 285 292 C281.93980007 290.78881477 280.00400391 289.21094473 277.79296875 286.8046875 C277.2100708 286.1753833 276.62717285 285.5460791 276.02661133 284.89770508 C275.41970459 284.2302124 274.81279785 283.56271973 274.1875 282.875 C273.243302 281.84959106 273.243302 281.84959106 272.2800293 280.8034668 C268.71918631 276.92474916 265.20416748 273.0106655 261.76953125 269.01953125 C259.3911558 266.30513807 256.94491095 263.65427613 254.5 261 C250.89979545 257.09025645 247.35582218 253.14133329 243.875 249.125 C241.45449858 246.38176506 238.97795822 243.69118757 236.5 241 C232.8558306 237.04140277 229.26086221 233.04823168 225.734375 228.984375 C222.20500535 224.94626738 218.59429369 220.98025811 215 217 C210.23213025 211.72014424 205.48487782 206.42708194 200.8125 201.0625 C197.9673071 197.8248667 195.07146164 194.6331371 192.18359375 191.43359375 C190.29151315 189.32488854 188.42094242 187.20080199 186.5625 185.0625 C182.90942044 180.86696779 179.15494451 176.76626447 175.40625 172.65625 C172.84851229 169.83277331 170.34230031 166.96943998 167.84375 164.09375 C164.74118115 160.57049384 161.56242841 157.11647559 158.3984375 153.6484375 C156.44762857 151.49428693 154.52606388 149.32281531 152.625 147.125 C149.48976121 143.51427475 146.25090766 140.00615451 143 136.5 C139.17917531 132.37807292 135.39064894 128.23882255 131.71679688 123.984375 C129.9188535 121.90620609 128.11109458 119.8369305 126.30078125 117.76953125 C125.67985596 117.06030518 125.05893066 116.3510791 124.41918945 115.62036133 C123.95085693 115.08564209 123.48252441 114.55092285 123 114 C122.95411241 148.1663354 122.91892509 182.33266371 122.89786934 216.49902333 C122.89536826 220.54272459 122.89277958 224.58642579 122.89013672 228.63012695 C122.88934979 229.83754908 122.88934979 229.83754908 122.88854696 231.06936357 C122.87987033 244.06260416 122.86411565 257.05582684 122.84569441 270.04905685 C122.82691872 283.4047737 122.81586715 296.76048125 122.81182301 310.11621076 C122.80909377 318.34170213 122.80050863 326.5671429 122.78416707 334.79261867 C122.77350524 340.4512461 122.77041991 346.10984778 122.77299725 351.7684845 C122.77426442 355.02167807 122.7713429 358.27476678 122.76158905 361.52794838 C122.6662228 395.00608914 124.0469747 429.13490446 148 455 C161.3723997 467.18007325 177.45280679 472.4372656 195 475 C195 476.98 195 478.96 195 481 C140.55 481 86.1 481 30 481 C30 478.69 30 476.38 30 474 C31.74023438 473.47212891 31.74023438 473.47212891 33.515625 472.93359375 C52.85153912 466.89838193 68.89516144 457.5846422 78.95751953 439.25585938 C89.78294235 418.41511714 93.16746492 396.06936365 93.13371277 372.80021667 C93.1371111 371.0488683 93.1371111 371.0488683 93.14057809 369.26213914 C93.14577201 366.05734951 93.14657012 362.85259563 93.14538372 359.64780319 C93.14517808 356.17734312 93.15071378 352.70689115 93.15544128 349.23643494 C93.16371287 342.45115747 93.16649452 335.6658887 93.16705366 328.88060661 C93.1675304 323.36090215 93.16959298 317.84120053 93.17275429 312.32149696 C93.18155061 296.64184512 93.18617516 280.9622001 93.18542381 265.28254577 C93.18536388 264.0172132 93.18536388 264.0172132 93.18530273 262.72631836 C93.18524141 261.45942563 93.18524141 261.45942563 93.18517885 260.16693912 C93.18477247 246.48172063 93.19434279 232.79652967 93.2084411 219.11131915 C93.22283227 205.02978033 93.22970981 190.94825492 93.22884732 176.86670858 C93.22851635 168.97286109 93.23121993 161.07904247 93.24202538 153.18520164 C93.25116644 146.46472229 93.25327611 139.74428491 93.24651595 133.023802 C93.24326911 129.60115558 93.24312694 126.17858952 93.2518692 122.75595093 C93.31969126 90.24465488 90.01815206 57.09297942 66.5546875 32.37109375 C47.74415051 14.91238435 24.92813152 9.19275231 0 7 C0 4.69 0 2.38 0 0 Z " fill="#072A1B" transform="translate(331,330)"/>
<path d="M0 0 C0.33 0.66 0.66 1.32 1 2 C0.38598633 3.66967773 0.38598633 3.66967773 -0.66796875 5.68359375 C-1.06048828 6.43680908 -1.45300781 7.19002441 -1.85742188 7.96606445 C-2.29634766 8.78163818 -2.73527344 9.59721191 -3.1875 10.4375 C-3.63802734 11.28207764 -4.08855469 12.12665527 -4.55273438 12.99682617 C-20.78003649 42.95684343 -42.23685712 71.66278701 -68.375 93.75 C-74.56414392 99.10311037 -77.48348671 105.02014334 -78.18704915 113.16553402 C-78.26628532 115.52512887 -78.28401008 117.8772404 -78.2784729 120.23815918 C-78.2871615 121.5837339 -78.2871615 121.5837339 -78.29602563 122.95649195 C-78.31294971 125.944339 -78.31589558 128.93203087 -78.31884766 131.91992188 C-78.32815107 134.06886165 -78.33832035 136.21779782 -78.34928894 138.36672974 C-78.37655635 144.18837675 -78.39172875 150.00999961 -78.40471697 155.83169365 C-78.42036172 161.92025392 -78.44714768 168.00876496 -78.4727478 174.09729004 C-78.51951173 185.62136084 -78.55626743 197.14544093 -78.58942068 208.66955805 C-78.62765888 221.79165256 -78.67706462 234.9136976 -78.72740483 248.03575039 C-78.83068923 275.02379692 -78.91996103 302.01187523 -79 329 C-85.10118242 329.24849731 -91.19938047 329.429242 -97.30444336 329.54931641 C-99.37755675 329.59939551 -101.45032062 329.66748476 -103.5222168 329.75439453 C-120.73105075 330.45780924 -120.73105075 330.45780924 -126.26025391 326.90527344 C-128.53297949 324.38002279 -130.23793392 321.89548879 -132 319 C-133.46970264 317.3065562 -134.96692164 315.63629109 -136.5 314 C-137.23992187 313.17757813 -137.97984375 312.35515625 -138.7421875 311.5078125 C-140.26708244 309.81407106 -141.79315402 308.12138831 -143.3203125 306.4296875 C-147.31489899 302.00178994 -151.27734092 297.55042448 -155.1953125 293.0546875 C-158.75638173 289.00030997 -162.3834804 285.0048707 -166 281 C-174.56860207 271.51127959 -174.56860207 271.51127959 -178.4375 267.0625 C-181.24822525 263.83440488 -184.115799 260.66261557 -187 257.5 C-190.45328153 253.71337002 -193.86099051 249.8952368 -197.22265625 246.02734375 C-199.29359487 243.66510827 -201.39512848 241.33204147 -203.5 239 C-206.18983431 236.01937279 -208.86310364 233.02754767 -211.5 230 C-215.61082427 225.28297123 -219.8074226 220.64430291 -224 216 C-226.24796977 213.50312008 -228.49508007 211.00546849 -230.7421875 208.5078125 C-232.26708244 206.81407106 -233.79315402 205.12138831 -235.3203125 203.4296875 C-238.69912708 199.68435744 -242.06895965 195.93481793 -245.375 192.125 C-248.94711497 188.01369787 -252.64304379 184.01874546 -256.35693359 180.03564453 C-259.89148141 176.21703718 -259.89148141 176.21703718 -261 174 C-269.42815901 174.33531385 -276.24925742 177.27762102 -283.875 180.6875 C-284.52628876 180.97489044 -285.17757751 181.26228088 -285.84860229 181.55838013 C-311.34869307 192.82162729 -336.90544973 205.47348194 -358 224 C-359.43666016 225.23943359 -359.43666016 225.23943359 -360.90234375 226.50390625 C-377.90397293 241.43190294 -395.40036621 263.12867826 -397.20532227 286.67895508 C-397.24197998 287.61634521 -397.2786377 288.55373535 -397.31640625 289.51953125 C-397.35830078 290.54111328 -397.40019531 291.56269531 -397.44335938 292.61523438 C-397.48267578 293.67033203 -397.52199219 294.72542969 -397.5625 295.8125 C-397.60568359 296.88693359 -397.64886719 297.96136719 -397.69335938 299.06835938 C-397.79910983 301.71212082 -397.90120233 304.3559711 -398 307 C-408.63865705 305.09061124 -417.25503899 297.09854163 -424 289 C-426.60728234 285.12770289 -428.9196561 281.17841801 -431 277 C-431.4125 276.20207031 -431.825 275.40414063 -432.25 274.58203125 C-434.02497744 268.47130161 -431.44473691 262.97714282 -428.6875 257.5625 C-428.16397949 256.53032349 -428.16397949 256.53032349 -427.62988281 255.47729492 C-390.79297121 185.65056519 -297.48620547 157.60792624 -227.51855469 135.92089844 C-223.31221145 134.67846539 -219.08797457 133.51263515 -214.85546875 132.36328125 C-207.73079486 130.4111717 -200.72057593 128.08029844 -193.6953125 125.80126953 C-188.21818956 124.0247844 -182.73517945 122.29969982 -177.20556641 120.69311523 C-174.07418435 119.70905572 -171.0739101 118.46169999 -168.04296875 117.20703125 C-165.7008557 116.2780031 -163.36385309 115.40944533 -160.98828125 114.57421875 C-122.68792209 101.05375059 -83.56865893 80.48752986 -52.90625 53.54296875 C-50.15840309 51.1386027 -47.35036115 48.84360799 -44.5 46.5625 C-29.40354156 34.22278615 -16.09620348 20.27549311 -4 5 C-2.66694941 3.33310718 -1.33369554 1.66637684 0 0 Z " fill="#062A1A" transform="translate(906,482)"/>
<path d="M0 0 C8.26649499 4.0912873 16.48765823 8.24268027 24.64306641 12.55175781 C36.90077133 19.01881615 48.98493529 24.84288063 62.21875 29.07421875 C64.7860719 29.92879079 67.25487372 30.89370551 69.75 31.9375 C85.39166836 38.28881438 101.84587831 41.85958227 118.4375 44.6875 C119.13407715 44.80689941 119.8306543 44.92629883 120.54833984 45.04931641 C131.20665504 46.78427419 141.9079981 47.2216241 152.6875 47.5625 C153.97333984 47.60568359 155.25917969 47.64886719 156.58398438 47.69335938 C159.72257494 47.79836798 162.86123004 47.90052405 166 48 C157.29941938 66.09208971 147.50910173 83.53990039 136 100 C135.59571777 100.58297852 135.19143555 101.16595703 134.77490234 101.76660156 C123.93547573 117.3619716 112.29003181 133.22256284 98.578125 146.421875 C96.93981418 148.06018582 95.48150174 149.78170498 94 151.5625 C57.83762046 193.26977774 3.96431861 222.09941122 -47 241 C-48.30080471 241.49212549 -49.60158563 241.98431387 -50.90234375 242.4765625 C-71.24851386 250.10327701 -91.95320097 256.69030377 -112.73925781 262.99658203 C-115.04069397 263.70479576 -117.33647308 264.43152072 -119.62792969 265.17138672 C-120.80000977 265.54666504 -121.97208984 265.92194336 -123.1796875 266.30859375 C-124.24687012 266.65591553 -125.31405273 267.0032373 -126.41357422 267.36108398 C-129 268 -129 268 -131 267 C-130.26064209 266.47212891 -130.26064209 266.47212891 -129.50634766 265.93359375 C-117.59626869 257.4172619 -106.01075897 248.88966964 -95.25 238.9375 C-94.30991089 238.07040405 -94.30991089 238.07040405 -93.35083008 237.18579102 C-89.26142888 233.35099136 -85.56690962 229.32171951 -82 225 C-80.85724609 223.64455078 -80.85724609 223.64455078 -79.69140625 222.26171875 C-74.81207967 216.36176238 -70.24649923 210.36974885 -66 204 C-65.59523438 203.39414062 -65.19046875 202.78828125 -64.7734375 202.1640625 C-58.47562591 192.69893046 -52.61985941 183.07624149 -47.16210938 173.10498047 C-45.9127133 170.8418937 -44.63832179 168.5941662 -43.359375 166.34765625 C-37.49600692 156.14876579 -37.49600692 156.14876579 -32.9140625 145.3359375 C-32.08803689 143.22498316 -31.14213038 141.29970176 -30.1015625 139.2890625 C-27.91825727 134.97740937 -26.29928675 130.5719012 -24.75 126 C-24.45407959 125.13318604 -24.15815918 124.26637207 -23.85327148 123.37329102 C-23.22228547 121.52183871 -22.59334378 119.6696886 -21.96630859 117.81689453 C-21.0219258 115.06391609 -20.0407545 112.32671244 -19.05078125 109.58984375 C-6.35755401 73.88799114 -1.77692513 37.62806446 0 0 Z " fill="#5C7E4C" transform="translate(789,335)"/>
<path d="M0 0 C4.86828723 1.45223484 9.38082318 3.48158854 13.99365234 5.57958984 C34.64960036 14.94933143 55.87166417 22.90586149 78 28 C79.85238281 28.44085938 79.85238281 28.44085938 81.7421875 28.890625 C90.10826588 30.79115951 98.48820095 31.98669059 107 33 C105.49125786 38.15892474 103.23726389 42.58902136 100.625 47.25 C100.18800781 48.03213867 99.75101563 48.81427734 99.30078125 49.62011719 C94.32294209 58.38742404 88.73959593 66.71808473 83 75 C82.33436035 75.96728027 82.33436035 75.96728027 81.65527344 76.95410156 C75.85745021 85.35413203 69.66736036 93.27038222 63 101 C62.38382813 101.71671875 61.76765625 102.4334375 61.1328125 103.171875 C57.17291311 107.73397107 53.11285714 112.20544447 49.05859375 116.68359375 C47.45826681 118.48434114 45.93197248 120.3005398 44.4375 122.1875 C36.4772756 131.37237431 27.32580453 137.97883671 15.0390625 139.32421875 C5.33216345 139.68604404 -1.65261011 137.22791987 -9.1875 131.125 C-17.34979872 123.36117571 -22.83638761 111.62768662 -23.30078125 100.36328125 C-23.31982526 98.67979068 -23.32322028 96.99606415 -23.3125 95.3125 C-23.30903564 94.43126465 -23.30557129 93.5500293 -23.30200195 92.64208984 C-23.17032519 84.71092939 -22.22411601 77.31071947 -18.546875 70.18359375 C-16.76030239 66.50668294 -15.65509702 62.86435859 -14.5625 58.9375 C-14.16904598 57.55047522 -13.77447824 56.16376598 -13.37890625 54.77734375 C-13.1667749 54.02904297 -12.95464355 53.28074219 -12.73608398 52.50976562 C-11.89041058 49.62634188 -10.97789571 46.76686891 -10.0703125 43.90234375 C-7.99788568 37.19657312 -6.32972212 30.42620528 -4.76245117 23.58642578 C-4.30777204 21.60438988 -3.84481101 19.62441503 -3.38085938 17.64453125 C-2.02090018 11.77022173 -0.7915391 5.98188934 0 0 Z " fill="#93AE80" transform="translate(809,369)"/>
<path d="M0 0 C-29.50744539 17.4231479 -59.65158362 33.44606625 -90.35107422 48.65722656 C-91.35470001 49.15581429 -91.35470001 49.15581429 -92.37860107 49.66447449 C-94.20490989 50.57158674 -96.03234905 51.47642221 -97.85986328 52.38110352 C-100.98303591 53.9425226 -100.98303591 53.9425226 -103.79248047 55.71069336 C-106 57 -106 57 -108 57 C-108 57.66 -108 58.32 -108 59 C-109.18577637 59.33849976 -109.18577637 59.33849976 -110.39550781 59.68383789 C-118.46425093 62.06551074 -126.08761262 64.97555736 -133.75 68.4375 C-134.91031738 68.95973145 -136.07063477 69.48196289 -137.26611328 70.02001953 C-160.86507874 80.76834834 -184.38213447 92.77039636 -204 110 C-204.95777344 110.82628906 -205.91554688 111.65257812 -206.90234375 112.50390625 C-223.90397293 127.43190294 -241.40036621 149.12867826 -243.20532227 172.67895508 C-243.24197998 173.61634521 -243.2786377 174.55373535 -243.31640625 175.51953125 C-243.37924805 177.0519043 -243.37924805 177.0519043 -243.44335938 178.61523438 C-243.48267578 179.67033203 -243.52199219 180.72542969 -243.5625 181.8125 C-243.62727539 183.42415039 -243.62727539 183.42415039 -243.69335938 185.06835938 C-243.79910983 187.71212082 -243.90120233 190.3559711 -244 193 C-254.63865705 191.09061124 -263.25503899 183.09854163 -270 175 C-272.60728234 171.12770289 -274.9196561 167.17841801 -277 163 C-277.4125 162.20207031 -277.825 161.40414062 -278.25 160.58203125 C-280.02497744 154.47130161 -277.44473691 148.97714282 -274.6875 143.5625 C-274.16397949 142.53032349 -274.16397949 142.53032349 -273.62988281 141.47729492 C-236.79297121 71.65056519 -143.48620547 43.60792624 -73.51855469 21.92089844 C-69.31221145 20.67846539 -65.08797457 19.51263515 -60.85546875 18.36328125 C-53.73079486 16.4111717 -46.72057593 14.08029844 -39.6953125 11.80126953 C-35.00279951 10.27926981 -30.30994199 8.78241881 -25.578125 7.38671875 C-22.2864401 6.40888988 -19.10322071 5.3399876 -15.9375 4 C-12.64789813 2.65401756 -9.3547766 1.36301372 -6 0.1875 C-4.9171875 -0.19341797 -4.9171875 -0.19341797 -3.8125 -0.58203125 C-2 -1 -2 -1 0 0 Z " fill="#5A7C4A" transform="translate(752,596)"/>
<path d="M0 0 C10.18021976 8.38616464 15.72249379 20.22550065 17.25390625 33.16796875 C17.72049771 47.45168798 14.26236018 62.68428456 4.84765625 73.74609375 C-2.20137164 80.69314655 -10.50982164 83.53482258 -20.3125 83.9375 C-29.96787118 83.52262077 -36.90138546 79.81771761 -43.85546875 73.203125 C-51.85711923 63.71373046 -55.58055104 52.03695178 -55.5 39.75 C-55.49508545 38.86658936 -55.4901709 37.98317871 -55.48510742 37.07299805 C-55.251713 23.99931998 -52.01435379 13.33778704 -43 3.6875 C-30.42802271 -8.31779384 -14.43976983 -9.78727032 0 0 Z " fill="#F4F0E9" transform="translate(841.1875,424.5625)"/>
<path d="M0 0 C0.33 0 0.66 0 1 0 C0.97905273 0.69448242 0.95810547 1.38896484 0.93652344 2.10449219 C-0.01400414 20.0730524 -0.01400414 20.0730524 5 37 C5.43570313 37.88429688 5.87140625 38.76859375 6.3203125 39.6796875 C10.93243402 48.17304789 17.13022946 54.07184581 26.296875 57.34765625 C34.56533176 59.34307862 42.86437853 58.0159062 51 56 C39.74177685 70.84742732 20.58659296 82.04557433 5 92 C3.96101562 92.67160156 2.92203125 93.34320312 1.8515625 94.03515625 C-4.21574013 97.78541811 -10.0248837 100.1841183 -16.890625 102.09765625 C-20.58010174 103.16834611 -24.05729626 104.56160017 -27.5859375 106.0703125 C-42.87125362 111.95689055 -60.87556938 110.13894843 -77 110 C-74.94911783 106.37599799 -73.81940675 104.67099045 -70 103 C-69.46375 102.46375 -68.9275 101.9275 -68.375 101.375 C-67.92125 100.92125 -67.4675 100.4675 -67 100 C-66.34 100 -65.68 100 -65 100 C-64.7628125 99.43152344 -64.525625 98.86304688 -64.28125 98.27734375 C-62.71932575 95.50111863 -60.82301429 93.74216372 -58.5 91.5625 C-52.67371534 85.83623739 -47.81574146 79.56646238 -43 73 C-42.47970215 72.29746094 -41.9594043 71.59492187 -41.42333984 70.87109375 C-34.49624596 61.50740528 -27.83645246 52.09194133 -22 42 C-21.52062988 41.17902832 -21.04125977 40.35805664 -20.54736328 39.51220703 C-13.04110474 26.61988277 -6.14012828 13.59713162 0 0 Z " fill="#92AD7F" transform="translate(786,449)"/>
<path d="M0 0 C7.67939376 5.44308678 11.40084356 11.47102748 13.7578125 20.57421875 C15.13663221 30.23974494 12.55573213 39.86105736 7.1328125 47.94921875 C3.51168558 52.37196919 -1.17608783 55.05321194 -6.2421875 57.57421875 C-6.98210937 57.94804688 -7.72203125 58.321875 -8.484375 58.70703125 C-17.2022368 61.4483419 -28.68535529 60.94260613 -36.9296875 57.13671875 C-44.83274027 52.41699353 -50.55803844 45.97591277 -53.625 37.25 C-55.80704919 27.78985004 -54.7166444 18.24290734 -49.6171875 10.01171875 C-37.85362504 -6.46863445 -17.33495568 -11.02309899 0 0 Z " fill="#F5F1EA" transform="translate(487.2421875,872.42578125)"/>
<path d="M0 0 C10.89822479 -1.51598181 10.89822479 -1.51598181 15.55078125 1.83984375 C17.87847593 4.45694985 19.94929591 7.16115217 22 10 C23.40665348 11.73732202 24.82351954 13.46642031 26.25 15.1875 C26.98734375 16.09886719 27.7246875 17.01023437 28.484375 17.94921875 C31.42924771 21.52056283 34.4571172 25.01219222 37.5 28.5 C42.23498723 33.92826552 46.86224987 39.42081279 51.390625 45.0234375 C52.84843176 46.88238638 52.84843176 46.88238638 54 48 C54.04944073 41.80697799 54.08573905 35.61407091 54.10986328 29.42089844 C54.11992034 27.31410725 54.13356768 25.20733001 54.15087891 23.10058594 C54.17514 20.07223059 54.18648608 17.04405981 54.1953125 14.015625 C54.20563507 13.07382385 54.21595764 12.13202271 54.22659302 11.16168213 C54.22674408 10.28107117 54.22689514 9.40046021 54.22705078 8.49316406 C54.23371262 7.33400482 54.23371262 7.33400482 54.24050903 6.15142822 C54.07854906 3.58197197 54.07854906 3.58197197 52 0 C55.96 0 59.92 0 64 0 C63.67 0.99 63.34 1.98 63 3 C62.88293767 5.00841665 62.82324033 7.02035989 62.79467773 9.03198242 C62.77473251 10.27304245 62.75478729 11.51410248 62.73423767 12.79277039 C62.71725473 14.1470019 62.70037587 15.50123473 62.68359375 16.85546875 C62.66301772 18.24124259 62.64202108 19.62701025 62.62062073 21.01277161 C62.56546699 24.65740953 62.51602826 28.30210346 62.46777344 31.94683838 C62.41750944 35.6670835 62.36184896 39.38724743 62.30664062 43.10742188 C62.19914101 50.40487913 62.09767793 57.70240397 62 65 C55.26464844 65.19775391 55.26464844 65.19775391 52.8828125 63.41796875 C52.01269531 62.31388672 52.01269531 62.31388672 51.125 61.1875 C50.45597656 60.36507812 49.78695312 59.54265625 49.09765625 58.6953125 C48.40542969 57.80585937 47.71320313 56.91640625 47 56 C45.5241573 54.18479241 44.04491934 52.37234065 42.5625 50.5625 C41.81097656 49.63566406 41.05945313 48.70882812 40.28515625 47.75390625 C38.08636063 45.10407563 35.81898905 42.54483841 33.5 40 C29.64522278 35.769801 26.00923359 31.40140104 22.43359375 26.93359375 C19.05787824 22.86431229 15.52946938 18.93598814 12 15 C11.94929674 21.47783059 11.91426508 27.95561001 11.89013672 34.43359375 C11.88007817 36.63738925 11.86642974 38.8411714 11.84912109 41.04492188 C11.8248666 44.21227309 11.8135154 47.37944787 11.8046875 50.546875 C11.79436493 51.53242371 11.78404236 52.51797241 11.77340698 53.53338623 C11.77318039 54.91436493 11.77318039 54.91436493 11.77294922 56.32324219 C11.768508 57.1315448 11.76406677 57.93984741 11.75949097 58.77264404 C11.91303576 61.40708364 11.91303576 61.40708364 14 65 C10.04 65 6.08 65 2 65 C2.33 63.68 2.66 62.36 3 61 C3.10022861 59.16348828 3.14819797 57.32381836 3.16113281 55.48461914 C3.17074036 54.37989761 3.1803479 53.27517609 3.19024658 52.13697815 C3.19449646 50.94837692 3.19874634 49.7597757 3.203125 48.53515625 C3.20882507 47.30969589 3.21452515 46.08423553 3.22039795 44.82164001 C3.22984216 42.23014183 3.23637963 39.63863167 3.24023438 37.04711914 C3.24995385 33.08133079 3.28098933 29.11605766 3.3125 25.15039062 C3.31902883 22.63281558 3.32427977 20.11523683 3.328125 17.59765625 C3.3404718 16.41107925 3.3528186 15.22450226 3.36553955 14.00196838 C3.36253845 12.8940947 3.35953735 11.78622101 3.35644531 10.64477539 C3.36009094 9.67310928 3.36373657 8.70144318 3.36749268 7.70033264 C2.93606203 4.53018439 1.79919927 2.61432326 0 0 Z " fill="#0D3021" transform="translate(318,866)"/>
<path d="M0 0 C3.983314 -0.12467036 7.96585506 -0.21483313 11.95068359 -0.2746582 C13.96362253 -0.31182827 15.97601837 -0.3753997 17.98828125 -0.43945312 C25.70675162 -0.53641883 31.09040591 -0.22302673 37 5 C37.825 5.721875 38.65 6.44375 39.5 7.1875 C41.76876249 11.44142968 41.60543028 15.28207377 41 20 C39.37329828 25.22256867 37.31903207 28.61988794 33 32 C25.99416335 35.64948394 18.71652483 35.32201881 11 35 C11.1387078 38.93778511 11.28718492 42.87514223 11.4375 46.8125 C11.47681641 47.93205078 11.51613281 49.05160156 11.55664062 50.20507812 C11.61948242 51.81479492 11.61948242 51.81479492 11.68359375 53.45703125 C11.72025146 54.44678955 11.75690918 55.43654785 11.79467773 56.45629883 C11.90790331 59.1218351 11.90790331 59.1218351 13 62 C8.71 62 4.42 62 0 62 C0.495 59.03 0.495 59.03 1 56 C1.08570777 54.16857056 1.12780759 52.33465385 1.12939453 50.5012207 C1.13254669 49.45025711 1.13569885 48.39929352 1.13894653 47.31648254 C1.1369223 46.19755112 1.13489807 45.07861969 1.1328125 43.92578125 C1.13376923 42.76499557 1.13472595 41.6042099 1.13571167 40.4082489 C1.13639066 37.96153713 1.13455598 35.51482353 1.13037109 33.06811523 C1.12500436 29.3155516 1.13033309 25.56310687 1.13671875 21.81054688 C1.1360582 19.4322914 1.13477753 17.054036 1.1328125 14.67578125 C1.13483673 13.55077713 1.13686096 12.42577301 1.13894653 11.26667786 C1.13579437 10.22517075 1.13264221 9.18366364 1.12939453 8.1105957 C1.12859894 7.19381546 1.12780334 6.27703522 1.12698364 5.33247375 C1.09446338 2.84307566 1.09446338 2.84307566 0 0 Z " fill="#103122" transform="translate(895,869)"/>
<path d="M0 0 C7.67939376 5.44308678 11.40084356 11.47102748 13.7578125 20.57421875 C15.13663221 30.23974494 12.55573213 39.86105736 7.1328125 47.94921875 C3.51168558 52.37196919 -1.17608783 55.05321194 -6.2421875 57.57421875 C-6.98210937 57.94804688 -7.72203125 58.321875 -8.484375 58.70703125 C-17.2022368 61.4483419 -28.68535529 60.94260613 -36.9296875 57.13671875 C-44.83274027 52.41699353 -50.55803844 45.97591277 -53.625 37.25 C-55.80704919 27.78985004 -54.7166444 18.24290734 -49.6171875 10.01171875 C-37.85362504 -6.46863445 -17.33495568 -11.02309899 0 0 Z M-39.2421875 8.01171875 C-44.72396546 15.5886955 -44.89128026 22.41701774 -44.2421875 31.57421875 C-42.54176609 40.87068324 -38.6997181 46.87361657 -31.046875 52.375 C-25.96139385 55.75431323 -20.16143893 54.97024991 -14.2421875 54.57421875 C-8.57037659 53.22802977 -3.86856992 49.7897679 -0.44140625 45.12109375 C4.50455474 35.9704269 5.62090509 26.92308396 3.0546875 16.80078125 C0.15421173 9.59875244 -4.78901984 3.39861252 -11.98046875 0.234375 C-22.0558782 -2.70646126 -32.62236632 -0.19467114 -39.2421875 8.01171875 Z " fill="#0F3122" transform="translate(487.2421875,872.42578125)"/>
<path d="M0 0 C2.97 0 5.94 0 9 0 C9.39832031 1.15757812 9.79664063 2.31515625 10.20703125 3.5078125 C10.74197499 5.04694888 11.27714315 6.58600727 11.8125 8.125 C12.07353516 8.88554688 12.33457031 9.64609375 12.60351562 10.4296875 C14.13146257 14.80602937 15.90365124 18.8581573 18 23 C18.82332609 25.21766866 19.61392872 27.44770299 20.375 29.6875 C22.27619741 35.12194681 24.42194141 40.32226006 26.875 45.52734375 C27.91127127 47.80498164 28.79131315 50.07972937 29.625 52.4375 C30.81395068 55.51796314 31.96074958 57.47521377 34 60 C34 60.66 34 61.32 34 62 C29.38 62 24.76 62 20 62 C20 59.69 20 57.38 20 55 C18.96191769 51.77978846 18.96191769 51.77978846 17.5 48.75 C15 43.27777778 15 43.27777778 15 40 C2.625 40.495 2.625 40.495 -10 41 C-13.43719793 48.47590549 -15.68491954 53.78096553 -15 62 C-18.63 62 -22.26 62 -26 62 C-24.797581 58.99395251 -23.59265036 56.0062124 -22.32348633 53.03027344 C-22.00587845 52.28469177 -21.68827057 51.53911011 -21.36103821 50.77093506 C-20.85167976 49.57721283 -20.85167976 49.57721283 -20.33203125 48.359375 C-19.59567815 46.63021897 -18.85935091 44.90105192 -18.12304688 43.171875 C-16.97621441 40.48030464 -15.82907463 37.78886613 -14.68139648 35.09765625 C-9.70712642 23.43071222 -4.79740845 11.7408493 0 0 Z " fill="#103223" transform="translate(666,869)"/>
<path d="M0 0 C4.62 0 9.24 0 14 0 C14.3403125 2.041875 14.3403125 2.041875 14.6875 4.125 C16.65859636 13.93883892 20.4844924 23.15931772 24.734375 32.18359375 C26.68627652 36.52717707 28.32550798 40.9831702 29.984375 45.4453125 C30.76308298 47.89503584 30.76308298 47.89503584 32 49 C32.47421387 47.86981445 32.94842773 46.73962891 33.43701172 45.57519531 C35.1986657 41.37768038 36.96210183 37.18091611 38.72607422 32.984375 C39.4889299 31.16882387 40.2513037 29.3530702 41.01318359 27.53710938 C42.10908063 24.92524526 43.20671492 22.31411716 44.3046875 19.703125 C44.6443454 18.89256653 44.9840033 18.08200806 45.33395386 17.24688721 C45.65413483 16.48640076 45.9743158 15.72591431 46.30419922 14.94238281 C46.58399628 14.27619934 46.86379333 13.61001587 47.15206909 12.92364502 C48 11 48 11 49.09817505 8.98797607 C50.44776016 6.0129609 50.12369877 3.21616803 50 0 C53.3 0 56.6 0 60 0 C58.38195746 4.1374108 56.60926278 8.19935141 54.8046875 12.2578125 C54.16804545 13.69446056 53.53149282 15.13114825 52.89501953 16.56787109 C52.56455627 17.31317078 52.23409302 18.05847046 51.89361572 18.82635498 C44.91843662 34.56117654 44.91843662 34.56117654 38.125 50.375 C37.81030762 51.11508301 37.49561523 51.85516602 37.17138672 52.61767578 C35.8772183 55.70571161 34.65833884 58.70830579 34 62 C31.36 62 28.72 62 26 62 C25.7878183 61.46732513 25.5756366 60.93465027 25.35702515 60.38583374 C23.11990953 54.77067728 20.88023307 49.15654694 18.63916016 43.54296875 C17.80649043 41.45630935 16.97444342 39.36940135 16.14306641 37.28222656 C9.2985968 18.02957435 9.2985968 18.02957435 0 0 Z " fill="#0F3122" transform="translate(545,869)"/>
<path d="M0 0 C1.32 0 2.64 0 4 0 C4 1.98 4 3.96 4 6 C4.886875 6.103125 5.77375 6.20625 6.6875 6.3125 C10.0573702 7.01190702 12.17271538 8.08742511 15 10 C14.67 12.64 14.34 15.28 14 18 C12.68 18 11.36 18 10 18 C9.731875 17.38125 9.46375 16.7625 9.1875 16.125 C8.04443152 13.7004767 8.04443152 13.7004767 5 12 C0.92509248 11.66042437 -0.53001271 11.68667514 -4 14 C-4.66707548 17.41499591 -4.66707548 17.41499591 -4 21 C-1.86725618 23.33913838 0.3321392 24.65256506 3.125 26.10546875 C8.43275559 28.87590199 13.11865763 31.55263196 16 37 C17.0681571 41.7446048 16.47663504 45.04672992 14.3125 49.375 C11.04006111 53.08966036 7.87731394 55.09679371 3 56 C2.67 57.98 2.34 59.96 2 62 C0.35 62 -1.3 62 -3 62 C-3 60.02 -3 58.04 -3 56 C-3.680625 55.9175 -4.36125 55.835 -5.0625 55.75 C-8.8746907 54.77667472 -11.64070329 53.04192545 -15 51 C-15 48.03 -15 45.06 -15 42 C-12.75 41.625 -12.75 41.625 -10 42 C-7.8125 44.9375 -7.8125 44.9375 -6 48 C-2.94306678 49.52846661 -0.37015453 49.23242445 3 49 C5.52040427 48.04826062 5.52040427 48.04826062 7 46 C7.35996895 42.54429807 7.09991843 40.29975529 6 37 C3.69687646 35.93548229 3.69687646 35.93548229 1 35 C-0.7285226 34.05693068 -2.4372344 33.07670777 -4.125 32.0625 C-4.97320313 31.55847656 -5.82140625 31.05445313 -6.6953125 30.53515625 C-10.08654671 28.2762494 -11.69785804 26.90642588 -13 23 C-13.60729594 19.03335815 -13.78755608 15.51885815 -11.90625 11.890625 C-9.1543638 8.34830341 -7.58727926 7.14208369 -3.125 6.0625 C-2.09375 6.041875 -1.0625 6.02125 0 6 C0 4.02 0 2.04 0 0 Z " fill="#0F3123" transform="translate(821,432)"/>
<path d="M0 0 C16.17 0 32.34 0 49 0 C49 2.31 49 4.62 49 7 C48.13036621 6.76228882 48.13036621 6.76228882 47.24316406 6.51977539 C43.78779602 5.71911382 40.28089697 5.62776918 36.75 5.4375 C35.63238281 5.37272461 35.63238281 5.37272461 34.4921875 5.30664062 C32.661651 5.20103275 30.83084824 5.10005799 29 5 C29.11749394 12.63561407 29.24232738 20.2710826 29.37231445 27.90649414 C29.41568138 30.50509913 29.45735515 33.10373295 29.49731445 35.70239258 C29.55497423 39.43319392 29.61868129 43.16384994 29.68359375 46.89453125 C29.70030624 48.06023148 29.71701874 49.2259317 29.73423767 50.42695618 C29.75418289 51.50785019 29.77412811 52.5887442 29.79467773 53.70239258 C29.81799416 55.13135612 29.81799416 55.13135612 29.84178162 56.58918762 C29.90718078 59.14391198 29.90718078 59.14391198 31 62 C26.71 62 22.42 62 18 62 C18.33 60.68 18.66 59.36 19 58 C19.1126123 56.19850735 19.17580504 54.39363477 19.20532227 52.58886719 C19.22526749 51.50804871 19.24521271 50.42723022 19.26576233 49.31365967 C19.29083107 47.57285126 19.29083107 47.57285126 19.31640625 45.796875 C19.33718735 44.60394836 19.35796844 43.41102173 19.37937927 42.1819458 C19.44476239 38.37135577 19.50370776 34.56069686 19.5625 30.75 C19.60569589 28.16665954 19.64931052 25.58332605 19.69335938 23 C19.80043234 16.66673948 19.90221972 10.33341044 20 4 C17.79112243 4.11498267 15.58289213 4.24243505 13.375 4.375 C12.14523437 4.44460938 10.91546875 4.51421875 9.6484375 4.5859375 C6.16346145 4.9814487 3.26950399 5.76261849 0 7 C0 4.69 0 2.38 0 0 Z " fill="#052819" transform="translate(737,869)"/>
<path d="M0 0 C4.29 0 8.58 0 13 0 C12.67 0.99 12.34 1.98 12 3 C11.90685241 4.80931527 11.87207759 6.62188294 11.87060547 8.43359375 C11.86745331 9.54484619 11.86430115 10.65609863 11.86105347 11.80102539 C11.8630777 13.00106201 11.86510193 14.20109863 11.8671875 15.4375 C11.86623077 16.66911865 11.86527405 17.9007373 11.86428833 19.16967773 C11.86343284 22.44333656 11.86746146 25.71694805 11.87304688 28.99060059 C11.87499804 30.99798087 11.87305384 33.00531743 11.86962891 35.01269531 C11.86346367 38.86265096 11.86419684 42.71254168 11.8671875 46.5625 C11.86516327 47.76253662 11.86313904 48.96257324 11.86105347 50.19897461 C11.86420563 51.31022705 11.86735779 52.42147949 11.87060547 53.56640625 C11.87140106 54.54552979 11.87219666 55.52465332 11.87301636 56.53344727 C11.89692673 59.1358365 11.89692673 59.1358365 13 62 C8.71 62 4.42 62 0 62 C0.33 61.01 0.66 60.02 1 59 C1.09330602 57.15476745 1.12792446 55.30632975 1.12939453 53.45874023 C1.13254669 52.32423935 1.13569885 51.18973846 1.13894653 50.02085876 C1.1369223 48.79581131 1.13489807 47.57076385 1.1328125 46.30859375 C1.13376923 45.05240738 1.13472595 43.79622101 1.13571167 42.50196838 C1.13639264 39.84478316 1.13504479 37.18768971 1.13037109 34.53051758 C1.12466818 31.12180377 1.12795851 27.7131686 1.13394356 24.30445766 C1.13842124 21.05583351 1.13528858 17.80721893 1.1328125 14.55859375 C1.13483673 13.33152206 1.13686096 12.10445038 1.13894653 10.8401947 C1.13579437 9.70884598 1.13264221 8.57749725 1.12939453 7.41186523 C1.12859894 6.4127562 1.12780334 5.41364716 1.12698364 4.38426208 C1.15814387 1.98377797 1.15814387 1.98377797 0 0 Z " fill="#0C2E1F" transform="translate(832,869)"/>
<path d="M0 0 C2.11198504 2.11198504 2.76333342 3.57927018 3.875 6.3125 C6.66181194 12.69552881 9.40372643 16.30764344 16 19 C18.73572585 19.69907414 18.73572585 19.69907414 21 20 C21 20.66 21 21.32 21 22 C19.845 22.350625 18.69 22.70125 17.5 23.0625 C11.47429798 25.37021567 6.62120783 28.87598716 3.609375 34.6796875 C2.63594684 37.09954764 1.76261049 39.50646439 1 42 C-0.00561897 40.01534229 -0.98602294 38.03125003 -1.89453125 36 C-5.46062322 28.23047196 -10.15372411 25.70807552 -17.98828125 22.734375 C-18.65214844 22.49203125 -19.31601562 22.2496875 -20 22 C-20 21.34 -20 20.68 -20 20 C-19.41992188 19.84144531 -18.83984375 19.68289063 -18.2421875 19.51953125 C-13.10981975 17.98659633 -8.3180604 16.43047371 -5 12 C-3.07019231 8.08933151 -1.47806832 4.10065858 0 0 Z " fill="#618150" transform="translate(626,955)"/>
<path d="M0 0 C12 0 12 0 17 3 C19.93035973 6.23090944 21.24242992 8.75470242 21.4375 13.0625 C20.79167989 18.87488099 18.41942927 22.25018123 14 26 C10 27 10 27 0 27 C0 18.09 0 9.18 0 0 Z " fill="#EFEDE7" transform="translate(906,873)"/>
<path d="M0 0 C1.32 1.32 2.64 2.64 4 4 C3.01 4.495 3.01 4.495 2 5 C1.67 93.11 1.34 181.22 1 272 C0.67 272 0.34 272 0 272 C0 182.24 0 92.48 0 0 Z " fill="#E9EBE5" transform="translate(453,443)"/>
<path d="M0 0 C2.40250153 2.40250153 3.16953569 4.53931447 4.4375 7.6875 C5.84110687 11.15499036 7.25626581 14.5985167 8.8125 18 C10 21 10 21 10 25 C3.4 25 -3.2 25 -10 25 C-9.0925 22.36 -8.185 19.72 -7.25 17 C-6.97317383 16.1853125 -6.69634766 15.370625 -6.41113281 14.53125 C-4.64201835 9.4557216 -2.49027551 4.76400532 0 0 Z " fill="#EDECE5" transform="translate(668,879)"/>
<path d="M0 0 C9.25689743 5.41223237 9.25689743 5.41223237 11.19140625 9.28125 C10.53140625 10.18875 9.87140625 11.09625 9.19140625 12.03125 C6.84200797 15.21300815 6.84200797 15.21300815 7.19140625 19.28125 C7.85140625 19.61125 8.51140625 19.94125 9.19140625 20.28125 C8.53140625 20.94125 7.87140625 21.60125 7.19140625 22.28125 C6.84529297 21.41113281 6.84529297 21.41113281 6.4921875 20.5234375 C3.38914042 13.09084251 0.10262773 7.43799455 -7.4921875 3.96484375 C-13.49054245 2.19467155 -19.79244879 2.9479422 -25.80859375 4.28125 C-25.47859375 2.96125 -25.14859375 1.64125 -24.80859375 0.28125 C-25.13859375 0.28125 -25.46859375 0.28125 -25.80859375 0.28125 C-27.14427396 -0.04255126 -28.47782386 -0.37532551 -29.80859375 -0.71875 C-20.57146212 -4.30459303 -9.00522013 -4.26643255 0 0 Z " fill="#103424" transform="translate(482.80859375,869.71875)"/>
<path d="M0 0 C0.99 0.495 0.99 0.495 2 1 C2.4140625 3.72265625 2.4140625 3.72265625 2.625 7.0625 C2.69976562 8.16722656 2.77453125 9.27195312 2.8515625 10.41015625 C2.90054687 11.26480469 2.94953125 12.11945312 3 13 C3.99 12.01 4.98 11.02 6 10 C6 24.52 6 39.04 6 54 C5.34 52.68 4.68 51.36 4 50 C3.01 51.32 2.02 52.64 1 54 C0.67 36.18 0.34 18.36 0 0 Z " fill="#042415" transform="translate(322,870)"/>
<path d="M0 0 C3.96 0 7.92 0 12 0 C11.67 0.99 11.34 1.98 11 3 C10.88293767 5.00841665 10.82324033 7.02035989 10.79467773 9.03198242 C10.77473251 10.27304245 10.75478729 11.51410248 10.73423767 12.79277039 C10.71725473 14.1470019 10.70037587 15.50123473 10.68359375 16.85546875 C10.66301772 18.24124259 10.64202108 19.62701025 10.62062073 21.01277161 C10.56546699 24.65740953 10.51602826 28.30210346 10.46777344 31.94683838 C10.41750944 35.6670835 10.36184896 39.38724743 10.30664062 43.10742188 C10.19914101 50.40487913 10.09767793 57.70240397 10 65 C9.67 65 9.34 65 9 65 C9 47.18 9 29.36 9 11 C8.34 11 7.68 11 7 11 C6.67 12.32 6.34 13.64 6 15 C5.67 15 5.34 15 5 15 C4.67 26.55 4.34 38.1 4 50 C3.01 50 2.02 50 1 50 C1.33 49.34 1.66 48.68 2 48 C2.09923393 46.60180153 2.13828073 45.19906138 2.14526367 43.79736328 C2.15164352 42.92951202 2.15802338 42.06166077 2.16459656 41.16751099 C2.16570938 40.22793549 2.1668222 39.28835999 2.16796875 38.3203125 C2.17129715 37.35600311 2.17462555 36.39169373 2.17805481 35.39816284 C2.18312364 33.35545327 2.18546315 31.31273539 2.18530273 29.27001953 C2.18748622 26.14471769 2.20563418 23.01977045 2.22460938 19.89453125 C2.22754389 17.91145954 2.2295283 15.92838616 2.23046875 13.9453125 C2.23765427 13.00978546 2.24483978 12.07425842 2.25224304 11.11038208 C2.24916641 10.2362265 2.24608978 9.36207092 2.24291992 8.46142578 C2.24505745 7.31131516 2.24505745 7.31131516 2.24723816 6.13796997 C2.07479336 3.5804121 2.07479336 3.5804121 0 0 Z " fill="#3F5D4D" transform="translate(370,866)"/>
<path d="M0 0 C2.475 0.495 2.475 0.495 5 1 C4.01 1.495 4.01 1.495 3 2 C3 3.32 3 4.64 3 6 C56.13 6 109.26 6 164 6 C164 6.33 164 6.66 164 7 C109.88 7 55.76 7 0 7 C0 4.69 0 2.38 0 0 Z " fill="#1B3A30" transform="translate(361,804)"/>
<path d="M0 0 C0.33 0 0.66 0 1 0 C1.33 16.5 1.66 33 2 50 C2.495 47.03 2.495 47.03 3 44 C3.66 45.32 4.32 46.64 5 48 C5.33 34.47 5.66 20.94 6 7 C6.66 7.33 7.32 7.66 8 8 C7.99555878 8.57993713 7.99111755 9.15987427 7.98654175 9.75738525 C7.94230431 15.79184506 7.91213184 21.82625882 7.89013672 27.86083984 C7.88007747 30.11313752 7.86642854 32.36542214 7.84912109 34.61767578 C7.82486969 37.85452498 7.8135161 41.09120155 7.8046875 44.328125 C7.79436493 45.33554749 7.78404236 46.34296997 7.77340698 47.38092041 C7.77318039 48.79193024 7.77318039 48.79193024 7.77294922 50.23144531 C7.768508 51.05751282 7.76406677 51.88358032 7.75949097 52.73468018 C7.90889625 55.40159846 7.90889625 55.40159846 10 59 C6.04 59 2.08 59 -2 59 C-1.67 57.68 -1.34 56.36 -1 55 C-0.8871659 53.16788499 -0.82414436 51.33242005 -0.79467773 49.49707031 C-0.7647599 47.84581146 -0.7647599 47.84581146 -0.73423767 46.16119385 C-0.70916893 44.38757477 -0.70916893 44.38757477 -0.68359375 42.578125 C-0.66281265 41.36300232 -0.64203156 40.14787964 -0.62062073 38.89593506 C-0.55523172 35.01401427 -0.49628949 31.1320258 -0.4375 27.25 C-0.39430468 24.61848258 -0.35069006 21.98697201 -0.30664062 19.35546875 C-0.19956117 12.9037174 -0.09777486 6.45189871 0 0 Z " fill="#2A4335" transform="translate(322,872)"/>
<path d="M0 0 C6.27 0 12.54 0 19 0 C19 2.31 19 4.62 19 7 C17.68 6.67 16.36 6.34 15 6 C9.72 5.67 4.44 5.34 -1 5 C-1 21.5 -1 38 -1 55 C-1.33 55 -1.66 55 -2 55 C-2.05068173 47.81008919 -2.08572588 40.6202244 -2.10986328 33.43017578 C-2.11992504 30.98386921 -2.13357581 28.53757467 -2.15087891 26.09130859 C-2.17511919 22.57646718 -2.18648138 19.0617847 -2.1953125 15.546875 C-2.20563507 14.4519574 -2.21595764 13.35703979 -2.22659302 12.22894287 C-2.22674408 11.20818665 -2.22689514 10.18743042 -2.22705078 9.13574219 C-2.231492 8.23861511 -2.23593323 7.34148804 -2.24050903 6.41717529 C-2 4 -2 4 0 0 Z " fill="#415D4E" transform="translate(767,869)"/>
<path d="M0 0 C0.66 0 1.32 0 2 0 C3.75 2.1875 3.75 2.1875 5 5 C4.39031953 6.68834592 3.71162443 8.35202764 3 10 C2.81138627 13.02291741 2.9094602 15.9669166 3 19 C-0.63 19 -4.26 19 -8 19 C-6.34756901 14.86892253 -4.63392332 10.77341996 -2.875 6.6875 C-2.59785156 6.04232422 -2.32070313 5.39714844 -2.03515625 4.73242188 C-1.35732446 3.15470995 -0.67873926 1.57732174 0 0 Z " fill="#183629" transform="translate(648,912)"/>
<path d="M0 0 C0.33 0 0.66 0 1 0 C1.33 2.64 1.66 5.28 2 8 C2.33 7.01 2.66 6.02 3 5 C3.66 5 4.32 5 5 5 C5.05790353 8.29159316 5.09356261 11.58305603 5.125 14.875 C5.14175781 15.81214844 5.15851563 16.74929688 5.17578125 17.71484375 C5.18222656 18.61074219 5.18867188 19.50664063 5.1953125 20.4296875 C5.20578613 21.25710449 5.21625977 22.08452148 5.22705078 22.93701172 C5 25 5 25 3 27 C2.67 26.01 2.34 25.02 2 24 C1.67 30.6 1.34 37.2 1 44 C0.67 44 0.34 44 0 44 C0 29.48 0 14.96 0 0 Z " fill="#072417" transform="translate(374,872)"/>
<path d="M0 0 C0.33 0.99 0.66 1.98 1 3 C1.66 3 2.32 3 3 3 C4 7 4 7 1 15 C7.6 15 14.2 15 21 15 C21 15.66 21 16.32 21 17 C13.74 17 6.48 17 -1 17 C-1 16.34 -1 15.68 -1 15 C-2.65 15.33 -4.3 15.66 -6 16 C-4.25192871 10.53262809 -2.34205919 5.24175152 0 0 Z " fill="#1E4131" transform="translate(658,888)"/>
<path d="M0 0 C2.25 -0.375 2.25 -0.375 5 0 C7.1875 2.875 7.1875 2.875 9 6 C9.66 6.66 10.32 7.32 11 8 C10.34 8.66 9.68 9.32 9 10 C9.33 10.99 9.66 11.98 10 13 C10.66 13.33 11.32 13.66 12 14 C7.24518354 13.42365861 4.02951788 11.44931479 0 9 C0 6.03 0 3.06 0 0 Z " fill="#163728" transform="translate(806,474)"/>
<path d="M0 0 C3.3 0 6.6 0 10 0 C8.56835889 3.65938172 7.01065704 7.23988068 5.375 10.8125 C4.70597656 12.27623047 4.70597656 12.27623047 4.0234375 13.76953125 C3.68570313 14.50558594 3.34796875 15.24164062 3 16 C-0.3500512 10.9749232 -0.11829164 5.9145821 0 0 Z " fill="#0F3324" transform="translate(595,869)"/>
<path d="M0 0 C2.46278801 1.231394 3.42497687 2.78064923 5 5 C-0.74749554 7.94364975 -5.34261793 8.43629023 -11.75 8.3125 C-12.59949219 8.31572266 -13.44898438 8.31894531 -14.32421875 8.32226562 C-20.59837372 8.26775085 -20.59837372 8.26775085 -24 6 C-21.98177083 6.09765625 -19.96354167 6.1953125 -17.9453125 6.29296875 C-17.30335938 6.19628906 -16.66140625 6.09960938 -16 6 C-15.34 5.01 -14.68 4.02 -14 3 C-10.99609375 2.3046875 -10.99609375 2.3046875 -7.4375 1.875 C-3.39606407 1.70679704 -3.39606407 1.70679704 0 0 Z " fill="#284537" transform="translate(478,924)"/>
<path d="M0 0 C0.70253906 -0.00773438 1.40507812 -0.01546875 2.12890625 -0.0234375 C5.86821394 -0.00930023 8.70232667 0.17872104 11.875 2.25 C10.225 2.91 8.575 3.57 6.875 4.25 C6.875 4.58 6.875 4.91 6.875 5.25 C1.265 5.91 -4.345 6.57 -10.125 7.25 C-9.795 5.93 -9.465 4.61 -9.125 3.25 C-9.455 3.25 -9.785 3.25 -10.125 3.25 C-11.46068021 2.92619874 -12.79423011 2.59342449 -14.125 2.25 C-9.36448078 0.36966953 -5.06258762 -0.05635534 0 0 Z " fill="#153325" transform="translate(467.125,866.75)"/>
<path d="M0 0 C5.94 0 11.88 0 18 0 C18 0.66 18 1.32 18 2 C18.99 2.66 19.98 3.32 21 4 C13.08 4 5.16 4 -3 4 C-1.68 3.34 -0.36 2.68 1 2 C0.67 1.34 0.34 0.68 0 0 Z " fill="#042718" transform="translate(660,905)"/>
<path d="M0 0 C2.39614126 -0.05425226 4.79103853 -0.09379027 7.1875 -0.125 C8.19780273 -0.15013672 8.19780273 -0.15013672 9.22851562 -0.17578125 C13.28807807 -0.21538674 16.34998815 0.19979998 20 2 C20 2.33 20 2.66 20 3 C15.38 3 10.76 3 6 3 C6 3.66 6 4.32 6 5 C4.02 5.66 2.04 6.32 0 7 C0 4.69 0 2.38 0 0 Z " fill="#113424" transform="translate(737,869)"/>
<path d="M0 0 C11.88 0 23.76 0 36 0 C35.67 0.99 35.34 1.98 35 3 C27.42976738 3.12954409 19.98029056 2.61778251 12.4375 2 C11.23802734 1.90460937 10.03855469 1.80921875 8.80273438 1.7109375 C5.86822169 1.47711179 2.93400829 1.24005813 0 1 C0 0.67 0 0.34 0 0 Z " fill="#0C0C0A" transform="translate(666,0)"/>
<path d="M0 0 C2.36453193 2.36453193 2.36652704 3.25869929 2.6875 6.5 C2.77386719 7.2940625 2.86023438 8.088125 2.94921875 8.90625 C3 11 3 11 2 13 C0.33333333 13.66666667 -1.33333333 14.33333333 -3 15 C-3.33 15.66 -3.66 16.32 -4 17 C-4.66 17 -5.32 17 -6 17 C-4.13236819 11.27789404 -2.14710968 5.62338249 0 0 Z " fill="#1C3C2F" transform="translate(594,877)"/>
<path d="M0 0 C2 3 2 3 1.9375 4.8125 C-0.82970915 11.26932136 -6.42329372 15.0976894 -12 19 C-10.57523475 14.9186412 -8.58663399 11.82701522 -6 8.375 C-3.93950544 5.60999812 -1.91310101 2.86965152 0 0 Z " fill="#668656" transform="translate(725,536)"/>
<path d="M0 0 C0.33 0 0.66 0 1 0 C1 10.23 1 20.46 1 31 C-0.98 31.99 -0.98 31.99 -3 33 C-2.01 22.11 -1.02 11.22 0 0 Z " fill="#0C0B0C" transform="translate(1253,667)"/>
<path d="M0 0 C11.88 0 23.76 0 36 0 C36 0.33 36 0.66 36 1 C31.68926293 1.39741508 27.37641337 1.76383516 23.0625 2.125 C21.85013672 2.23714844 20.63777344 2.34929687 19.38867188 2.46484375 C12.42375848 3.03109687 6.72330753 2.95824491 0 1 C0 0.67 0 0.34 0 0 Z " fill="#070606" transform="translate(552,0)"/>
<path d="M0 0 C2.44009082 0.25511405 4.87577058 0.52832678 7.3125 0.8125 C8.00279297 0.88275391 8.69308594 0.95300781 9.40429688 1.02539062 C12.4277352 1.39054018 14.56107971 1.65111464 16.98046875 3.57421875 C17.31691406 4.04472656 17.65335937 4.51523437 18 5 C15.22890693 5.05392397 12.45886182 5.09363455 9.6875 5.125 C8.90181641 5.14175781 8.11613281 5.15851562 7.30664062 5.17578125 C6.54931641 5.18222656 5.79199219 5.18867187 5.01171875 5.1953125 C3.96697388 5.21102295 3.96697388 5.21102295 2.90112305 5.22705078 C1 5 1 5 -2 3 C-1.34 2.01 -0.68 1.02 0 0 Z " fill="#042012" transform="translate(457,926)"/>
<path d="M0 0 C1.20628008 2.33214148 2.1654738 4.49642139 3 7 C-1.29 7 -5.58 7 -10 7 C-8 3 -8 3 -5 2 C-5 2.66 -5 3.32 -5 4 C-1.87802522 2.6910428 -1.87802522 2.6910428 0 0 Z " fill="#1C3227" transform="translate(765,924)"/>
<path d="M0 0 C2 0 2 0 3.625 1.375 C5 3 5 3 5 5 C11.6 5 18.2 5 25 5 C25 5.66 25 6.32 25 7 C17.74 7 10.48 7 3 7 C3 6.34 3 5.68 3 5 C1.35 5.33 -0.3 5.66 -2 6 C-1.34 4.02 -0.68 2.04 0 0 Z " fill="#4B6759" transform="translate(654,898)"/>
<path d="M0 0 C-2.19511314 1.401264 -4.40180955 2.76961427 -6.625 4.125 C-7.24246094 4.52332031 -7.85992188 4.92164063 -8.49609375 5.33203125 C-11.93150029 7.39327518 -13.47983237 8.11389675 -17.4609375 7.2421875 C-18.71777344 6.62730469 -18.71777344 6.62730469 -20 6 C-20 5.67 -20 5.34 -20 5 C-17.86521743 4.28840581 -15.73021907 3.57761596 -13.59375 2.87109375 C-11.8800898 2.29557233 -10.17151329 1.70465983 -8.46875 1.09765625 C-7.27765625 0.67806641 -7.27765625 0.67806641 -6.0625 0.25 C-5.33160156 -0.01296875 -4.60070312 -0.2759375 -3.84765625 -0.546875 C-2 -1 -2 -1 0 0 Z " fill="#628557" transform="translate(752,596)"/>
<path d="M0 0 C0.66 0.33 1.32 0.66 2 1 C-7.22551253 12.70615034 -7.22551253 12.70615034 -13 17 C-13.66 16.67 -14.32 16.34 -15 16 C-14.33613281 15.34773437 -13.67226563 14.69546875 -12.98828125 14.0234375 C-8.42649537 9.50826841 -3.97889622 5.03993521 0 0 Z " fill="#E5E6DF" transform="translate(864,548)"/>
<path d="M0 0 C0.33 0.66 0.66 1.32 1 2 C-0.07674702 4.28258633 -1.19546116 6.4356434 -2.4375 8.625 C-2.77587891 9.23601562 -3.11425781 9.84703125 -3.46289062 10.4765625 C-4.30146192 11.988353 -5.14982577 13.49470399 -6 15 C-6.66 15 -7.32 15 -8 15 C-8 14.34 -8 13.68 -8 13 C-8.66 12.67 -9.32 12.34 -10 12 C-9.44570313 11.38511719 -8.89140625 10.77023437 -8.3203125 10.13671875 C-7.59585938 9.32847656 -6.87140625 8.52023437 -6.125 7.6875 C-5.40570312 6.88699219 -4.68640625 6.08648437 -3.9453125 5.26171875 C-1.88394498 2.95810917 -1.88394498 2.95810917 0 0 Z " fill="#273D31" transform="translate(906,482)"/>
<path d="M0 0 C0.66 0 1.32 0 2 0 C2 0.66 2 1.32 2 2 C2.56203125 2.23460937 3.1240625 2.46921875 3.703125 2.7109375 C6.54635891 4.30663 8.48098127 6.28924543 10.75 8.625 C11.54921875 9.44226562 12.3484375 10.25953125 13.171875 11.1015625 C14.07679688 12.04128906 14.07679688 12.04128906 15 13 C14.34 13.66 13.68 14.32 13 15 C10.82722286 12.88094537 8.66173092 10.75527122 6.5 8.625 C5.87996094 8.02171875 5.25992188 7.4184375 4.62109375 6.796875 C4.03457031 6.21679688 3.44804687 5.63671875 2.84375 5.0390625 C2.29912109 4.50490723 1.75449219 3.97075195 1.19335938 3.42041016 C0 2 0 2 0 0 Z " fill="#D6D4D2" transform="translate(164,1048)"/>
<path d="M0 0 C0.33 0.66 0.66 1.32 1 2 C1.99 2.33 2.98 2.66 4 3 C4 3.66 4 4.32 4 5 C-0.29 5 -4.58 5 -9 5 C-8.67 4.01 -8.34 3.02 -8 2 C-5.36 2 -2.72 2 0 2 C0 1.34 0 0.68 0 0 Z " fill="#1D382C" transform="translate(841,926)"/>
<path d="M0 0 C0.33 0 0.66 0 1 0 C1 2.31 1 4.62 1 7 C-1.97 6.34 -4.94 5.68 -8 5 C-8 4.34 -8 3.68 -8 3 C-11.63 3 -15.26 3 -19 3 C-19 2.67 -19 2.34 -19 2 C-16.58303128 1.94588876 -14.16728213 1.90627722 -11.75 1.875 C-11.06808594 1.85824219 -10.38617187 1.84148438 -9.68359375 1.82421875 C-5.9391765 1.78786518 -3.17647273 1.92055651 0 4 C0 2.68 0 1.36 0 0 Z " fill="#1B392A" transform="translate(785,869)"/>
<path d="M0 0 C-0.61538462 6.52307692 -0.61538462 6.52307692 -2.5625 8.9375 C-3.036875 9.288125 -3.51125 9.63875 -4 10 C-4 9.34 -4 8.68 -4 8 C-4.66 8 -5.32 8 -6 8 C-6.25 5.6875 -6.25 5.6875 -6 3 C-3.95575462 1.02389614 -2.8823175 0 0 0 Z " fill="#0D2519" transform="translate(665,883)"/>
<path d="M0 0 C2 2 2 2 2.265625 4.75 C2.25789063 6.35875 2.25789063 6.35875 2.25 8 C2.25515625 9.0725 2.2603125 10.145 2.265625 11.25 C2 14 2 14 0 16 C-0.98275588 13.05173237 -1.13414725 11.07347496 -1.125 8 C-1.12757813 7.13375 -1.13015625 6.2675 -1.1328125 5.375 C-1 3 -1 3 0 0 Z " fill="#0A2519" transform="translate(325,883)"/>
<path d="M0 0 C0.33 0.66 0.66 1.32 1 2 C2.98 1.67 4.96 1.34 7 1 C7.66 2.32 8.32 3.64 9 5 C5.04 5 1.08 5 -3 5 C-1 1 -1 1 0 0 Z " fill="#20382C" transform="translate(323,926)"/>
<path d="M0 0 C4.04161955 1.34484714 6.38678154 3.0505162 9.3125 6.125 C10.00988281 6.84945312 10.70726562 7.57390625 11.42578125 8.3203125 C11.94527344 8.87460937 12.46476563 9.42890625 13 10 C12.67 10.66 12.34 11.32 12 12 C8.60184863 10.86728288 7.71355084 9.8090686 5.4375 7.125 C4.53837891 6.07699219 4.53837891 6.07699219 3.62109375 5.0078125 C2 3 2 3 0 0 Z " fill="#163A29" transform="translate(691,542)"/>
<path d="M0 0 C0.71607422 -0.01224609 1.43214844 -0.02449219 2.16992188 -0.03710938 C5.96223108 -0.04765333 8.84849094 0.06440785 12.0625 2.1875 C10.0710944 2.56883299 8.06970923 2.90075582 6.0625 3.1875 C5.7325 2.8575 5.4025 2.5275 5.0625 2.1875 C-1.3324465 1.84455334 -7.63757602 2.04205928 -13.9375 3.1875 C-9.27953372 0.08218915 -5.42463813 0.00485644 0 0 Z " fill="#476053" transform="translate(466.9375,866.8125)"/>
<path d="M0 0 C0.66 0.33 1.32 0.66 2 1 C-1.3 4.63 -4.6 8.26 -8 12 C-8.99 11.67 -9.98 11.34 -11 11 C-7.37 7.37 -3.74 3.74 0 0 Z " fill="#E3E6D8" transform="translate(544,708)"/>
<path d="M0 0 C0.66 0.33 1.32 0.66 2 1 C1.34 3.31 0.68 5.62 0 8 C-0.99 8 -1.98 8 -3 8 C-3 6.68 -3 5.36 -3 4 C-3.66 4 -4.32 4 -5 4 C-4.67 3.01 -4.34 2.02 -4 1 C-3.01 1 -2.02 1 -1 1 C-0.67 0.67 -0.34 0.34 0 0 Z " fill="#183D2E" transform="translate(581,917)"/>
<path d="M0 0 C1.66175734 5.16991173 -0.29635592 9.00264404 -2 14 C-2.99 14 -3.98 14 -5 14 C-3.45730076 9.27934033 -1.92205381 4.58335908 0 0 Z " fill="#29483B" transform="translate(665,871)"/>
<path d="M0 0 C1.63001953 0.01353516 1.63001953 0.01353516 3.29296875 0.02734375 C4.12441406 0.03894531 4.95585937 0.05054688 5.8125 0.0625 C5.8125 0.3925 5.8125 0.7225 5.8125 1.0625 C1.1925 1.7225 -3.4275 2.3825 -8.1875 3.0625 C-8.5175 4.0525 -8.8475 5.0425 -9.1875 6.0625 C-10.5075 5.7325 -11.8275 5.4025 -13.1875 5.0625 C-8.9179711 0.49852084 -6.16422473 -0.06628199 0 0 Z " fill="#082719" transform="translate(466.1875,867.9375)"/>
<path d="M0 0 C0.33 0 0.66 0 1 0 C2.42705634 5.30723432 3.4002792 9.53891111 2 15 C-0.78781976 10.81827036 -1.20628545 7.59134491 -0.5625 2.625 C-0.376875 1.75875 -0.19125 0.8925 0 0 Z " fill="#0A2419" transform="translate(596,870)"/>
<path d="M0 0 C-5.36190101 2.61407872 -10.03435204 4.49228528 -16 5 C-11.53321948 1.09156705 -5.86504904 -1.93756084 0 0 Z " fill="#D2D1CD" transform="translate(408,41)"/>
<path d="M0 0 C-3.465 2.97 -3.465 2.97 -7 6 C-7.66 5.67 -8.32 5.34 -9 5 C-8.67 4.01 -8.34 3.02 -8 2 C-7.34 2 -6.68 2 -6 2 C-6 1.34 -6 0.68 -6 0 C-3 -1 -3 -1 0 0 Z " fill="#8BA77A" transform="translate(837,506)"/>
<path d="M0 0 C-0.33 0.66 -0.66 1.32 -1 2 C-2.65 2 -4.3 2 -6 2 C-6.66 3.32 -7.32 4.64 -8 6 C-9.32 5.34 -10.64 4.68 -12 4 C-10.56988027 3.13353333 -9.13059381 2.28218171 -7.6875 1.4375 C-6.48673828 0.72400391 -6.48673828 0.72400391 -5.26171875 -0.00390625 C-3 -1 -3 -1 0 0 Z " fill="#1B1B1A" transform="translate(944,1170)"/>
<path d="M0 0 C0.99 0 1.98 0 3 0 C2.375 2.375 2.375 2.375 1 5 C-2.125 6.3125 -2.125 6.3125 -5 7 C-4.67 6.01 -4.34 5.02 -4 4 C-3.34 4 -2.68 4 -2 4 C-1.34 2.68 -0.68 1.36 0 0 Z " fill="#0D2B1F" transform="translate(592,890)"/>
<path d="M0 0 C2 2 2 2 2 6 C0.5625 7.5625 0.5625 7.5625 -1 9 C-1.33 9.99 -1.66 10.98 -2 12 C-2.66 12 -3.32 12 -4 12 C-2.66666667 8 -1.33333333 4 0 0 Z " fill="#1F3A2D" transform="translate(582,906)"/>
<path d="M0 0 C4.29 0 8.58 0 13 0 C12.67 0.99 12.34 1.98 12 3 C9.36 2.34 6.72 1.68 4 1 C3.67 1.99 3.34 2.98 3 4 C2.01 2.68 1.02 1.36 0 0 Z " fill="#113223" transform="translate(832,869)"/>
<path d="M0 0 C0.66 0 1.32 0 2 0 C1.45660208 4.56454251 0.20536179 7.9728176 -2 12 C-3.12377697 8.69564916 -2.89554742 6.9493138 -1.5625 3.75 C-1.27503906 3.04359375 -0.98757813 2.3371875 -0.69140625 1.609375 C-0.46324219 1.07828125 -0.23507812 0.5471875 0 0 Z " fill="#DEDCD8" transform="translate(1209,853)"/>
<path d="M0 0 C0.33 0 0.66 0 1 0 C2.21513944 6.3187251 2.21513944 6.3187251 1.25 9.375 C0 11 0 11 -3 12 C-2.01 8.04 -1.02 4.08 0 0 Z " fill="#749065" transform="translate(777,421)"/>
<path d="M0 0 C0.66 0 1.32 0 2 0 C2.625 2.375 2.625 2.375 3 5 C2.34 5.66 1.68 6.32 1 7 C0.01 7 -0.98 7 -2 7 C-1.34 4.69 -0.68 2.38 0 0 Z " fill="#1C3C2E" transform="translate(585,899)"/>
<path d="M0 0 C2.475 0.495 2.475 0.495 5 1 C4.01 1.495 4.01 1.495 3 2 C2.34444881 4.52733235 2.34444881 4.52733235 2 7 C1.34 7 0.68 7 0 7 C0 4.69 0 2.38 0 0 Z " fill="#2A4337" transform="translate(361,804)"/>
<path d="M0 0 C1.17539996 0.92652701 2.34010577 1.86663387 3.5 2.8125 C4.1496875 3.33457031 4.799375 3.85664062 5.46875 4.39453125 C7 6 7 6 7 9 C5.82460004 8.07347299 4.65989423 7.13336613 3.5 6.1875 C2.52546875 5.40439453 2.52546875 5.40439453 1.53125 4.60546875 C0 3 0 3 0 0 Z " fill="#112F21" transform="translate(675,522)"/>
<path d="M0 0 C0.99 0.33 1.98 0.66 3 1 C0.69 3.31 -1.62 5.62 -4 8 C-4.66 7.34 -5.32 6.68 -6 6 C-4.02 4.02 -2.04 2.04 0 0 Z " fill="#153426" transform="translate(870,521)"/>
<path d="M0 0 C2.64752004 2.57784846 4.94432065 4.91648098 7 8 C4 8 4 8 2.61328125 6.6875 C1.40885417 5.125 0.20442708 3.5625 -1 2 C-0.67 1.34 -0.34 0.68 0 0 Z " fill="#1B3729" transform="translate(508,335)"/>
<path d="M0 0 C0.33 0.99 0.66 1.98 1 3 C-0.43359375 5.04296875 -0.43359375 5.04296875 -2.4375 7.1875 C-3.09621094 7.90292969 -3.75492188 8.61835937 -4.43359375 9.35546875 C-4.95050781 9.89816406 -5.46742187 10.44085937 -6 11 C-6.66 10.67 -7.32 10.34 -8 10 C-7.50628906 9.44570313 -7.01257812 8.89140625 -6.50390625 8.3203125 C-5.86324219 7.59585938 -5.22257812 6.87140625 -4.5625 6.125 C-3.92441406 5.40570312 -3.28632812 4.68640625 -2.62890625 3.9453125 C-0.94985535 2.09249509 -0.94985535 2.09249509 0 0 Z " fill="#252523" transform="translate(1122,1009)"/>
<path d="M0 0 C-2.88628401 1.57554035 -5.53342384 2.46276373 -8.75 3.125 C-9.54921875 3.29257812 -10.3484375 3.46015625 -11.171875 3.6328125 C-11.77515625 3.75398437 -12.3784375 3.87515625 -13 4 C-8.70699742 -0.75296714 -6.19220493 -1.54805123 0 0 Z " fill="#79946C" transform="translate(671,599)"/>
<path d="M0 0 C-1.0975223 2.99324263 -1.67682892 3.84610901 -4.625 5.25 C-5.40875 5.4975 -6.1925 5.745 -7 6 C-7.66 5.34 -8.32 4.68 -9 4 C-2.25 0 -2.25 0 0 0 Z " fill="#E7E7DB" transform="translate(799,550)"/>
<path d="M0 0 C0.99 0 1.98 0 3 0 C2.64950425 3.24208567 2.43778819 4.61527704 -0.0625 6.8125 C-0.701875 7.204375 -1.34125 7.59625 -2 8 C-2.66 7.34 -3.32 6.68 -4 6 C-3.01 5.67 -2.02 5.34 -1 5 C-0.67 3.35 -0.34 1.7 0 0 Z " fill="#081E15" transform="translate(821,433)"/>
<path d="M0 0 C2.64752004 2.57784846 4.94432065 4.91648098 7 8 C4 8 4 8 1.8125 6.25 C0 4 0 4 0 0 Z " fill="#1B392B" transform="translate(517,345)"/>
<path d="M0 0 C2.97 0.495 2.97 0.495 6 1 C6 1.66 6 2.32 6 3 C3.36 3.66 0.72 4.32 -2 5 C-1.34 3.35 -0.68 1.7 0 0 Z " fill="#6A8A59" transform="translate(641,974)"/>
<path d="M0 0 C0 0.66 0 1.32 0 2 C-3.13498292 3.85776765 -5.37471432 4.20140476 -9 4 C-9 3.34 -9 2.68 -9 2 C-3.375 0 -3.375 0 0 0 Z " fill="#E1E4DD" transform="translate(928,901)"/>
<path d="M0 0 C0.66 0.99 1.32 1.98 2 3 C-0.31 4.98 -2.62 6.96 -5 9 C-5.33 8.34 -5.66 7.68 -6 7 C-5.071875 6.1028125 -5.071875 6.1028125 -4.125 5.1875 C-1.86323046 2.99188856 -1.86323046 2.99188856 0 0 Z " fill="#DAD8D5" transform="translate(147,224)"/>
<path d="M0 0 C0 3.39593478 -0.52165948 4.06619881 -2.5 6.6875 C-2.9640625 7.31011719 -3.428125 7.93273437 -3.90625 8.57421875 C-4.2671875 9.04472656 -4.628125 9.51523438 -5 10 C-5.66 9.01 -6.32 8.02 -7 7 C-6.34 7 -5.68 7 -5 7 C-4.731875 6.401875 -4.46375 5.80375 -4.1875 5.1875 C-3.01506533 3.02775192 -1.80630718 1.64209744 0 0 Z " fill="#D0CECD" transform="translate(172,196)"/>
<path d="M0 0 C0.66 0.33 1.32 0.66 2 1 C-1.625 5.875 -1.625 5.875 -5 7 C-5 6.01 -5 5.02 -5 4 C-2.5 1.8125 -2.5 1.8125 0 0 Z " fill="#DEDDDA" transform="translate(259,119)"/>
<path d="M0 0 C0.99 0.33 1.98 0.66 3 1 C1.49336217 4.01327566 -1.03166411 4.61056618 -4 6 C-4.66 5.34 -5.32 4.68 -6 4 C-3.1875 1.9375 -3.1875 1.9375 0 0 Z " fill="#1B1B1A" transform="translate(977,1146)"/>
<path d="M0 0 C0 0.66 0 1.32 0 2 C-4.47058824 6 -4.47058824 6 -7 6 C-6.75 4.125 -6.75 4.125 -6 2 C-3.85331506 0.61504198 -2.56128588 0 0 0 Z " fill="#E4E7E1" transform="translate(458,874)"/>
<path d="M0 0 C3.99996286 1.33332095 4.83782337 3.4957827 7 7 C6.01 7 5.02 7 4 7 C0 2.65714286 0 2.65714286 0 0 Z " fill="#E6E6DE" transform="translate(736,759)"/>
<path d="M0 0 C0.33 0.99 0.66 1.98 1 3 C0.01 4.485 0.01 4.485 -1 6 C-1.66 6 -2.32 6 -3 6 C-3 5.34 -3 4.68 -3 4 C-3.66 3.67 -4.32 3.34 -5 3 C-3.35 2.01 -1.7 1.02 0 0 Z " fill="#173929" transform="translate(901,491)"/>
<path d="M0 0 C-0.66 1.32 -1.32 2.64 -2 4 C-2.99 3.67 -3.98 3.34 -5 3 C-5.33 2.01 -5.66 1.02 -6 0 C-3 -1 -3 -1 0 0 Z " fill="#103C28" transform="translate(661,897)"/>
<path d="M0 0 C1.32 1.32 2.64 2.64 4 4 C3.34 4.66 2.68 5.32 2 6 C1.34 7.32 0.68 8.64 0 10 C0 6.7 0 3.4 0 0 Z " fill="#DEE0D9" transform="translate(331,882)"/>
<path d="M0 0 C-5.078125 3.3203125 -5.078125 3.3203125 -7 4 C-9.234375 3.1171875 -9.234375 3.1171875 -11 2 C-9.54494642 1.47007308 -8.08581873 0.9513211 -6.625 0.4375 C-5.81289063 0.14746094 -5.00078125 -0.14257812 -4.1640625 -0.44140625 C-2 -1 -2 -1 0 0 Z " fill="#6B8664" transform="translate(752,596)"/>
<path d="M0 0 C0.75 1.75 0.75 1.75 1 4 C-0.8125 6.25 -0.8125 6.25 -3 8 C-3.66 8 -4.32 8 -5 8 C-3.62845496 5.04590299 -2.01136276 2.55991624 0 0 Z " fill="#C5C3C1" transform="translate(140,232)"/>
<path d="M0 0 C2.875 0.25 2.875 0.25 6 1 C7.375 3.0625 7.375 3.0625 8 5 C4.62496331 3.8141763 2.35277269 2.72426311 0 0 Z " fill="#C2C0BE" transform="translate(301,1162)"/>
<path d="M0 0 C0.33 0 0.66 0 1 0 C1.33 2.97 1.66 5.94 2 9 C1.01 9 0.02 9 -1 9 C-0.67 6.03 -0.34 3.06 0 0 Z " fill="#B4BDB2" transform="translate(736,869)"/>
<path d="M0 0 C0.66 0.33 1.32 0.66 2 1 C2 1.66 2 2.32 2 3 C0.03533587 4.06775224 -1.96855359 5.06553465 -4 6 C-4.66 5.67 -5.32 5.34 -6 5 C-4.02 3.35 -2.04 1.7 0 0 Z " fill="#D0CECC" transform="translate(248,127)"/>
</svg>
